<svg version="1.1" id="Layer_1" xmlns="http://www.w3.org/2000/svg" xmlns:xlink="http://www.w3.org/1999/xlink" x="0px" y="0px"
	 width="100%" viewBox="0 0 2038 130" enable-background="new 0 0 2038 130" xml:space="preserve">
<path fill="#FFFFFF" opacity="1.000000" stroke="none" 
	d="
M2038.629639,90.943680 
	C2039.000000,103.496368 2038.935425,115.993393 2039.062622,128.488464 
	C2039.084229,130.611679 2038.687744,131.440445 2036.507568,131.024750 
	C2035.703735,130.871445 2034.846191,131.000000 2034.013062,131.000000 
	C1547.321167,131.000000 1060.629272,131.000000 573.468628,131.000000 
	C573.181030,128.379776 575.566345,128.176331 577.220215,127.439148 
	C587.786011,122.729790 592.324097,114.019348 592.551514,103.122917 
	C592.937256,84.644226 592.675354,66.152817 592.635681,47.666866 
	C592.631226,45.607937 593.185059,43.023258 590.090088,42.506630 
	C587.263550,42.034809 584.751709,42.232357 584.040344,45.879543 
	C583.525574,48.518822 581.839050,48.442665 579.980896,47.134102 
	C577.396362,45.314003 574.912781,43.361588 571.881165,42.257721 
	C559.291687,37.673664 546.540466,42.051315 539.309753,53.487312 
	C529.295593,69.325424 533.978271,91.582626 549.263367,100.037415 
	C558.859253,105.345329 568.362183,105.118317 577.474731,98.666908 
	C578.425842,97.993568 579.328918,97.253990 580.320190,96.635857 
	C582.541870,95.250404 583.606384,96.086044 584.150330,98.444893 
	C585.796875,105.585945 581.518311,115.571419 575.131409,119.304214 
	C565.706726,124.812439 554.593811,122.836700 547.700378,114.361870 
	C546.299500,112.639702 545.107178,110.918129 542.411621,111.569687 
	C538.359619,112.549118 537.143799,115.069977 539.494934,118.500221 
	C541.967041,122.107056 545.119995,125.046829 549.087463,127.057678 
	C550.840027,127.945961 552.891113,128.412842 554.037537,130.608215 
	C371.296173,131.000000 188.592316,130.977036 5.888608,131.133804 
	C1.368312,131.137680 0.861304,129.842773 0.903681,125.894539 
	C1.114595,106.244049 1.000000,86.590073 1.000000,66.468658 
	C3.032858,65.685463 3.485785,67.415787 4.119758,68.631279 
	C5.966336,72.171638 8.814528,74.626411 12.184176,76.571846 
	C33.933956,89.128922 55.695473,101.665619 77.436066,114.238663 
	C87.218079,119.895805 96.746712,118.315941 103.030022,110.478745 
	C108.843689,103.227303 108.289238,92.391685 101.618294,85.938782 
	C95.792480,80.303383 88.193565,77.381828 81.447159,73.154335 
	C74.696922,68.924431 67.363167,65.645615 60.889751,60.353867 
	C61.123386,57.240917 63.596176,56.550407 65.524780,55.403599 
	C75.682953,49.363235 86.030540,43.647644 96.161591,37.558792 
	C110.691238,28.826365 111.074440,13.015744 96.954788,3.788448 
	C96.115173,3.239754 95.267380,2.708619 94.928619,1.363583 
	C113.020897,1.000000 131.041794,1.000000 149.531342,1.000000 
	C150.298843,2.875111 148.621201,3.010592 147.595947,3.654453 
	C133.879669,12.268323 133.854660,28.748455 147.738953,37.225063 
	C158.490540,43.789097 169.579681,49.790878 180.374176,56.290737 
	C181.777649,57.135834 183.424423,57.673508 184.216705,59.672501 
	C181.404434,63.253712 177.471893,64.814125 173.910553,66.888969 
	C164.863846,72.159599 155.701904,77.237030 146.776871,82.711349 
	C139.648636,87.083572 136.184280,94.381210 137.559525,101.671196 
	C139.137268,110.034531 144.015335,115.266327 152.384628,117.260918 
	C156.514832,118.245232 160.480392,117.612740 163.997467,115.671700 
	C185.961273,103.550117 207.731781,91.086761 229.410797,77.748383 
	C232.781570,75.642845 236.326752,74.598534 238.614655,71.373383 
	C245.949188,61.034245 243.418182,49.361786 231.884872,42.505875 
	C218.447235,34.517944 204.803772,26.879288 191.272797,19.048624 
	C182.636597,14.050659 174.055588,8.957722 165.385361,4.018542 
	C164.372772,3.441695 163.344467,2.873204 162.925827,1.359708 
	C786.693787,1.000000 1410.387573,1.006393 2034.081299,0.872991 
	C2038.527588,0.872040 2039.136353,2.057409 2039.102295,6.079978 
	C2038.896973,30.406101 2039.000000,54.734829 2039.000000,79.531342 
	C2037.765503,80.362198 2037.079956,79.507240 2036.589111,78.689484 
	C2032.949463,72.624870 2027.064819,70.166443 2020.620850,68.477806 
	C2015.955444,67.255302 2011.162964,66.459175 2006.724243,64.435089 
	C2003.513184,62.970787 2000.864624,61.038689 2001.014160,57.074749 
	C2001.158447,53.253765 2003.619751,51.136879 2006.893066,49.729797 
	C2014.127563,46.620110 2020.546387,48.102528 2026.308594,53.187294 
	C2027.530273,54.265244 2028.424438,55.968227 2030.409180,55.563736 
	C2032.358765,55.166397 2034.585571,54.807690 2035.488403,52.821926 
	C2036.391235,50.835781 2034.705811,49.390766 2033.538452,48.036613 
	C2025.138916,38.293743 2004.829956,37.609741 1995.746094,46.728809 
	C1988.958984,53.541862 1989.997559,64.294731 1997.899902,69.717178 
	C2002.139648,72.626411 2007.019897,73.698647 2011.872314,74.891563 
	C2016.081299,75.926308 2020.350464,76.823631 2024.026855,79.286774 
	C2030.638062,83.715912 2030.306152,89.940109 2023.298218,93.698608 
	C2015.130127,98.079399 2006.880249,96.155960 2000.185791,88.278145 
	C1998.814941,86.664986 1997.905273,84.629639 1995.023193,85.390327 
	C1990.432251,86.602051 1989.563354,88.562164 1992.253052,92.469215 
	C2002.651367,107.574875 2026.309570,107.682487 2036.557129,92.666649 
	C2037.029297,91.974731 2037.489868,91.287521 2038.629639,90.943680 
z"/>
<path fill="#34A853" opacity="1.000000" stroke="none" 
	d="
M162.536819,1.000001 
	C176.686768,9.003542 190.374557,17.005312 204.059937,25.011211 
	C214.149765,30.913719 224.252136,36.795029 234.319244,42.736065 
	C241.550949,47.003807 244.934006,53.628086 243.843506,61.721710 
	C242.806870,69.415710 239.152008,75.838806 230.372711,78.088470 
	C225.618469,81.518265 220.692734,81.086998 216.327560,78.922157 
	C205.303024,73.454689 194.584930,67.380898 184.203918,60.125938 
	C171.031265,52.179363 157.941559,44.718250 145.037308,36.949139 
	C138.222794,32.846424 135.251587,26.119722 136.192703,18.523829 
	C137.184418,10.519622 141.317337,4.146111 149.871643,1.340577 
	C154.024551,1.000000 158.049088,1.000000 162.536819,1.000001 
z"/>
<path fill="#4285F4" opacity="1.000000" stroke="none" 
	d="
M60.762852,59.524353 
	C73.537834,67.191910 86.182861,74.374100 98.575500,81.968147 
	C106.958458,87.105118 109.879623,94.693634 107.908760,104.027336 
	C106.373405,111.298523 98.612511,118.030228 90.252480,118.934570 
	C84.625061,119.543312 79.686752,117.140083 74.964027,114.418137 
	C58.408474,104.876282 41.878036,95.290848 25.337538,85.722862 
	C20.528482,82.941032 15.716365,80.164490 10.908048,77.381393 
	C6.463933,74.809105 3.426743,71.062218 1.325149,66.133301 
	C1.000000,61.975456 1.000000,57.950912 1.000000,53.463184 
	C2.514690,46.149052 7.032268,42.211788 13.848503,40.044830 
	C22.310394,38.710102 29.635944,40.458107 36.489475,45.014046 
	C44.240597,50.166656 52.738037,54.096973 60.762852,59.524353 
z"/>
<path fill="#EA4335" opacity="1.000000" stroke="none" 
	d="
M61.162750,59.532944 
	C53.425335,57.596455 47.180519,52.796299 40.526760,48.874229 
	C32.527443,44.159016 24.783434,39.310215 14.446703,40.905975 
	C13.727130,38.704235 15.453420,38.073814 16.833668,37.263878 
	C35.683773,26.202570 54.755253,15.523297 73.568176,4.397243 
	C76.002563,2.957531 78.581421,1.838864 81.710236,1.222159 
	C86.024544,1.000000 90.049088,1.000000 94.536819,1.000000 
	C99.336433,3.993821 104.120972,6.165812 106.436958,11.714889 
	C109.871277,19.943474 108.174973,31.953323 99.656509,36.881409 
	C88.815536,43.153118 78.072563,49.594101 67.275124,55.941311 
	C65.322029,57.089428 63.310028,58.137356 61.162750,59.532944 
z"/>
<path fill="#656C73" opacity="1.000000" stroke="none" 
	d="
M554.468262,131.000000 
	C547.128967,127.850235 540.614563,124.299339 536.995850,117.121155 
	C535.764832,114.679268 535.388123,112.687370 538.620667,111.780998 
	C541.409729,110.998962 544.022705,106.570145 547.138794,111.405579 
	C553.985779,122.030464 562.875854,122.393784 571.363464,119.738052 
	C578.456726,117.518570 582.137573,111.300667 582.966797,103.127068 
	C583.181702,101.008698 582.999084,98.849998 582.999084,96.010017 
	C578.393127,99.612427 574.416382,102.975861 568.920044,104.190414 
	C555.085999,107.247360 541.139954,100.151627 535.926331,86.988861 
	C530.953430,74.433792 531.486633,62.505680 539.305237,51.151672 
	C548.956482,37.136562 568.372437,34.826824 580.810242,46.307877 
	C581.276001,46.737850 581.771912,47.135113 583.002625,48.188812 
	C583.002625,46.265423 583.098755,45.046223 582.981445,43.847908 
	C582.773621,41.724766 583.548889,40.774487 585.765015,40.976139 
	C587.250793,41.111328 588.784424,41.176926 590.251831,40.964344 
	C593.484375,40.496044 594.078613,41.966412 594.061096,44.906364 
	C593.943359,64.713905 594.665527,84.552483 593.774963,104.320602 
	C593.140198,118.410881 587.064331,125.893318 573.139526,130.660645 
	C566.978821,131.000000 560.957703,131.000000 554.468262,131.000000 
z"/>
<path fill="#FFFFFF" opacity="1.000000" stroke="none" 
	d="
M81.531342,1.000000 
	C69.403351,8.320848 56.814137,15.654541 44.207672,22.958452 
	C34.239346,28.733881 24.249826,34.472733 14.127335,40.541740 
	C8.373613,43.259041 3.759711,46.698162 1.324205,52.867996 
	C1.000000,36.886688 1.120208,20.771738 0.900927,4.661411 
	C0.855816,1.347091 1.888181,0.920282 4.815487,0.933556 
	C30.230797,1.048800 55.646851,1.000000 81.531342,1.000000 
z"/>
<path fill="#656C73" opacity="1.000000" stroke="none" 
	d="
M2039.000000,90.541931 
	C2033.831421,102.222061 2024.279785,105.364929 2012.932983,104.977409 
	C2002.380127,104.617004 1994.662231,99.357773 1989.285034,90.526772 
	C1988.006226,88.426537 1988.106812,86.255081 1991.128906,85.369370 
	C1992.375122,85.004051 1993.701782,84.684196 1994.774780,84.002068 
	C1997.345703,82.367744 1998.577393,83.162216 2000.028442,85.716866 
	C2004.820312,94.153526 2014.314209,96.879608 2022.748779,92.712883 
	C2025.437622,91.384575 2027.757324,89.556564 2027.830811,86.616554 
	C2027.904175,83.680046 2025.656860,81.514748 2023.164917,80.069794 
	C2018.157227,77.166031 2012.421875,76.456398 2006.937988,75.010040 
	C2000.285889,73.255623 1994.125488,70.602409 1991.100464,63.944244 
	C1987.307739,55.596893 1991.557495,45.601837 2000.819214,41.770264 
	C2011.160034,37.492218 2021.494873,37.582527 2031.172607,44.052986 
	C2032.125854,44.690338 2032.971558,45.508327 2033.795166,46.315914 
	C2035.787109,48.268719 2038.521118,50.625568 2037.680420,53.224968 
	C2036.601318,56.561611 2032.067627,55.949684 2029.367676,57.778061 
	C2028.380249,58.446663 2027.634155,56.883144 2026.930420,55.913616 
	C2021.899658,48.981892 2011.807495,47.270287 2004.741455,52.071568 
	C2002.654297,53.489708 2001.816040,55.594215 2002.029053,58.045658 
	C2002.255737,60.654224 2004.027466,62.211182 2006.298828,62.935181 
	C2012.940796,65.052322 2019.644165,66.976967 2026.320557,68.986031 
	C2032.008911,70.697731 2036.037720,74.269615 2038.672729,79.879364 
	C2039.000000,83.361290 2039.000000,86.722572 2039.000000,90.541931 
z"/>
<path fill="#656C73" opacity="1.000000" stroke="none" 
	d="
M332.273376,25.022514 
	C320.294128,29.949009 312.693024,38.005444 309.657013,50.615009 
	C305.207214,69.096481 316.767181,88.578636 335.430725,92.973434 
	C351.215546,96.690361 366.293823,90.041344 372.804718,76.489098 
	C373.016693,76.047928 373.198029,75.591492 373.381439,75.137238 
	C376.655853,67.026779 375.984985,66.000099 367.414001,66.000000 
	C360.582825,65.999916 353.747894,65.868439 346.922180,66.061234 
	C343.989929,66.144058 342.862518,65.506905 342.908295,62.263351 
	C343.010742,55.003403 342.808624,55.000195 349.889130,55.000080 
	C360.719055,54.999901 371.550659,55.105270 382.377930,54.936188 
	C385.610901,54.885708 386.817749,56.269520 386.995911,59.185482 
	C388.325134,80.940712 375.356598,100.114479 352.549988,104.110916 
	C336.286926,106.960709 322.043304,103.091637 310.474518,91.760513 
	C293.698608,75.329193 292.917389,47.496925 306.912903,29.437654 
	C322.181854,9.735217 351.015228,7.019729 370.409729,20.134455 
	C370.819275,20.411413 371.252411,20.704454 371.550476,21.086714 
	C372.947296,22.878136 376.525238,24.416523 375.634552,26.196848 
	C374.151184,29.161869 371.176025,31.510267 368.477386,33.681152 
	C367.187927,34.718449 366.291443,32.675583 365.395264,31.853086 
	C355.835602,23.079517 344.919373,20.903084 332.273376,25.022514 
z"/>
<path fill="#FBBC04" opacity="1.000000" stroke="none" 
	d="
M183.688370,59.872055 
	C192.997299,63.868401 201.203552,69.309639 209.685471,74.239700 
	C215.846024,77.820503 221.920212,80.623550 229.599991,78.258041 
	C229.132126,81.282585 225.968430,81.660591 223.789917,82.929871 
	C205.086685,93.826965 186.006790,104.094826 167.524902,115.348061 
	C156.304504,122.179924 143.396027,117.950005 138.665939,109.048271 
	C133.192429,98.747475 136.307007,86.754463 147.444000,80.764458 
	C159.613602,74.219078 171.386826,66.936775 183.688370,59.872055 
z"/>
<path fill="#656C73" opacity="1.000000" stroke="none" 
	d="
M789.753418,87.603638 
	C779.985046,98.612312 767.825928,103.140884 753.677429,103.012360 
	C746.024658,102.942841 738.369019,102.907784 730.718262,103.050102 
	C728.078552,103.099197 726.924133,102.586891 726.936340,99.566833 
	C727.046997,72.114853 727.039368,44.662109 726.943542,17.210018 
	C726.933838,14.435152 727.981689,13.867338 730.442627,13.967547 
	C741.847595,14.431958 753.262085,13.400014 764.681885,14.915598 
	C778.572205,16.759062 793.020020,29.314276 796.886536,43.781322 
	C801.035461,59.305164 798.838318,73.838531 789.753418,87.603638 
z"/>
<path fill="#656C73" opacity="1.000000" stroke="none" 
	d="
M1936.285034,98.778488 
	C1935.178833,97.585426 1934.338135,96.646492 1933.459839,95.665573 
	C1933.290894,95.958908 1933.074707,96.179657 1933.034058,96.429031 
	C1932.695923,98.503166 1934.025879,101.751152 1932.272827,102.445908 
	C1929.673340,103.476158 1926.390503,103.148956 1923.454224,102.850624 
	C1920.916992,102.592827 1922.062500,100.192535 1922.054932,98.784615 
	C1921.968750,82.619690 1922.000000,66.454140 1922.000000,50.288761 
	C1922.000000,39.622940 1922.157349,28.953503 1921.912109,18.293327 
	C1921.829834,14.717629 1922.915283,13.453146 1926.371948,13.973083 
	C1927.512817,14.144675 1928.719116,14.132042 1929.864258,13.975003 
	C1933.056763,13.537222 1934.240479,14.655545 1934.064209,18.030228 
	C1933.538208,28.102400 1934.937256,38.236691 1932.749634,48.642513 
	C1942.002197,40.108875 1951.931152,36.313416 1963.844727,40.930908 
	C1974.700806,45.138538 1980.792603,53.249424 1983.000610,64.502876 
	C1985.517456,77.329895 1982.366211,88.233597 1972.986938,97.679817 
	C1964.367188,106.361229 1949.157104,107.079857 1939.415161,100.906113 
	C1938.451538,100.295380 1937.504883,99.657761 1936.285034,98.778488 
z"/>
<path fill="#656C73" opacity="1.000000" stroke="none" 
	d="
M1521.994995,46.010063 
	C1521.999634,36.439106 1522.133423,27.270649 1521.928101,18.109793 
	C1521.855713,14.884117 1522.720337,13.838878 1526.050903,13.914792 
	C1532.994873,14.073070 1532.999756,13.876135 1532.999756,20.705467 
	C1533.000000,46.202122 1533.027466,71.698853 1532.957886,97.195312 
	C1532.950806,99.769958 1534.551880,103.614029 1529.141846,103.059753 
	C1525.446167,102.681129 1520.494141,104.447144 1521.968994,97.530861 
	C1522.024902,97.269226 1521.817139,96.951378 1521.602173,96.213783 
	C1515.344360,102.189102 1508.194214,105.383064 1499.499390,105.055473 
	C1485.597534,104.531708 1474.096191,92.688606 1472.036255,79.842354 
	C1470.640991,71.141228 1471.368774,62.816360 1475.594482,54.702824 
	C1484.321533,37.946377 1505.848267,33.963581 1519.391724,45.857880 
	C1520.059692,46.444473 1520.419434,47.656467 1521.695435,47.268036 
	C1521.801025,47.235886 1521.882446,47.043575 1521.925659,46.909744 
	C1521.975708,46.754162 1521.971313,46.581055 1521.994995,46.010063 
z"/>
<path fill="#656C73" opacity="1.000000" stroke="none" 
	d="
M1116.906250,103.415901 
	C1112.687988,101.813309 1109.425415,99.463692 1105.999878,95.260010 
	C1105.999878,106.032784 1105.669312,115.452797 1106.131226,124.833801 
	C1106.384155,129.969833 1103.364990,129.002365 1100.515259,128.988220 
	C1097.696899,128.974228 1094.815186,129.993469 1094.869873,124.869286 
	C1095.151123,98.578873 1095.057617,72.283546 1094.932373,45.990719 
	C1094.915283,42.404697 1095.378784,40.630138 1099.661499,40.852070 
	C1103.298706,41.040550 1105.927856,41.116589 1105.021973,45.777290 
	C1104.866699,46.576080 1105.000000,47.430965 1105.000000,49.139507 
	C1107.472046,46.872238 1109.224731,44.649178 1111.493408,43.283104 
	C1126.972778,33.962463 1146.266846,40.366722 1153.035034,56.990604 
	C1158.193481,69.661018 1157.492188,81.742775 1149.425781,93.212791 
	C1142.929810,102.449760 1131.335205,106.927338 1120.151978,104.100906 
	C1119.197632,103.859657 1118.193604,103.814438 1116.906250,103.415901 
z"/>
<path fill="#656C73" opacity="1.000000" stroke="none" 
	d="
M1338.528442,91.788933 
	C1344.268921,89.156227 1346.831177,84.422028 1346.793457,79.040031 
	C1346.754639,73.510216 1343.167114,69.488708 1338.288452,66.675507 
	C1331.037354,62.494331 1322.713867,61.012890 1315.317871,57.135803 
	C1302.794678,50.571110 1298.718262,42.650230 1302.052856,29.029131 
	C1304.187622,20.309710 1311.053955,15.685784 1318.853760,13.290457 
	C1328.839844,10.223814 1338.607422,11.951889 1347.301147,18.102242 
	C1348.776855,19.146248 1350.151611,20.439074 1351.278931,21.851650 
	C1357.261230,29.347679 1356.187500,32.258907 1346.881470,34.628876 
	C1345.034058,35.099365 1344.568481,34.148087 1343.984253,32.916328 
	C1340.109741,24.748196 1332.422241,21.311350 1322.579102,23.995667 
	C1318.245483,25.177509 1313.366211,30.266628 1313.003906,34.248882 
	C1312.466553,40.154800 1314.234619,43.081310 1319.892700,45.992039 
	C1326.281738,49.278725 1333.229858,51.186775 1339.753052,54.094147 
	C1348.373657,57.936317 1356.396729,63.294846 1357.770630,73.305557 
	C1359.929810,89.037811 1354.347290,99.497597 1337.450073,103.975349 
	C1322.307983,107.988022 1305.783203,100.819336 1299.227539,85.686646 
	C1297.661987,82.072899 1297.039429,79.439651 1301.963989,78.488159 
	C1303.212158,78.247002 1304.409180,77.590134 1305.549927,76.976173 
	C1307.734131,75.800545 1308.448853,76.161667 1309.511963,78.756767 
	C1313.812988,89.257179 1321.191284,94.239395 1330.703979,94.034790 
	C1333.422852,93.976311 1335.729370,92.794334 1338.528442,91.788933 
z"/>
<path fill="#656C73" opacity="1.000000" stroke="none" 
	d="
M1743.213501,41.517792 
	C1749.003662,28.805126 1757.158081,19.058460 1770.597412,14.786642 
	C1787.651733,9.365742 1803.166748,11.436650 1816.639893,24.055403 
	C1818.972168,26.239742 1819.472656,27.830381 1816.691650,29.857550 
	C1815.627563,30.633261 1814.636353,31.607376 1813.873047,32.677456 
	C1812.133057,35.117298 1810.930664,34.505688 1809.011719,32.613079 
	C1799.513184,23.244537 1788.298218,20.532230 1775.657837,25.023123 
	C1763.080322,29.491745 1755.456299,38.258381 1752.950928,51.558151 
	C1750.549194,64.307251 1753.691772,75.327133 1762.899902,84.314415 
	C1776.218018,97.313026 1795.888306,97.105721 1809.894165,84.655884 
	C1811.315063,83.392876 1812.649536,80.344032 1814.325317,81.354576 
	C1817.225952,83.103554 1819.500000,85.986977 1821.777710,88.618706 
	C1822.510742,89.465439 1821.156494,90.350250 1820.477905,91.002876 
	C1808.717896,102.312584 1794.868042,106.757523 1778.618286,104.359085 
	C1769.534424,103.018341 1761.533691,99.291969 1755.076904,93.272972 
	C1747.160522,85.893532 1741.944092,76.448502 1741.118164,65.405121 
	C1740.530640,57.548222 1740.442993,49.561016 1743.213501,41.517792 
z"/>
<path fill="#656C73" opacity="1.000000" stroke="none" 
	d="
M1554.187988,79.393845 
	C1556.852173,87.137436 1561.786133,92.415695 1569.361694,93.803406 
	C1577.419189,95.279449 1584.693481,93.169090 1589.257080,85.403664 
	C1591.416504,81.729515 1594.235352,84.095543 1596.389404,85.189461 
	C1603.242188,88.669609 1602.112183,87.846344 1598.279297,92.954102 
	C1590.704834,103.047867 1579.827026,106.627411 1567.640137,104.682106 
	C1554.168945,102.531822 1546.109375,94.067863 1542.977661,80.809830 
	C1540.153931,68.855194 1542.607666,57.957771 1550.146729,48.491886 
	C1558.543701,37.949192 1577.299561,35.924938 1589.217163,43.728519 
	C1599.800659,50.658577 1602.200317,61.143497 1602.002686,72.811043 
	C1601.948730,75.998772 1599.588623,74.950241 1598.039307,74.958595 
	C1584.725342,75.030388 1571.410034,75.088593 1558.097412,74.934853 
	C1554.956909,74.898575 1553.340454,75.579514 1554.187988,79.393845 
z"/>
<path fill="#656C73" opacity="1.000000" stroke="none" 
	d="
M1177.003906,78.869392 
	C1181.356934,92.753654 1192.459473,96.358574 1203.190796,92.997604 
	C1207.083374,91.778450 1210.067505,89.264618 1211.895996,85.572998 
	C1213.075317,83.191849 1214.547119,82.998817 1216.753052,84.271996 
	C1218.997314,85.567413 1221.426270,86.543327 1223.788208,87.665771 
	C1219.007080,101.092659 1202.892822,106.986855 1190.291992,104.624947 
	C1178.016846,102.324066 1169.159302,95.255981 1166.226929,82.999779 
	C1162.948486,69.296997 1164.065674,55.839146 1175.745117,45.939899 
	C1184.802124,38.263409 1195.540039,36.997952 1206.656616,41.062801 
	C1216.567749,44.686817 1222.119629,52.334843 1223.911011,62.414898 
	C1226.138794,74.950386 1225.859497,74.999985 1213.169800,75.000008 
	C1202.005859,75.000031 1190.836914,75.186790 1179.680908,74.889015 
	C1176.231445,74.796944 1176.680786,76.373276 1177.003906,78.869392 
z"/>
<path fill="#656C73" opacity="1.000000" stroke="none" 
	d="
M938.669739,50.854790 
	C945.464172,42.513004 953.937073,38.583912 964.310669,39.020092 
	C979.480347,39.657936 990.406555,49.743523 991.973389,64.358200 
	C993.112915,74.987511 992.996582,74.994125 982.264832,75.001541 
	C969.948242,75.010056 957.631714,75.028206 945.315125,75.057297 
	C944.998047,75.058044 944.681335,75.234596 944.272766,75.356529 
	C945.254395,83.304283 948.642578,89.559845 956.416382,92.756828 
	C963.257568,95.570259 973.389709,94.562149 978.404968,87.236954 
	C979.459900,85.696007 981.433838,83.106613 982.230469,83.361023 
	C985.433838,84.383980 988.419739,86.207321 991.315186,88.009293 
	C992.317322,88.632973 991.164368,89.896042 990.760254,90.506493 
	C983.442932,101.557816 971.136902,106.651405 957.626587,104.426018 
	C942.140808,101.875237 932.299561,87.144310 932.788574,73.142670 
	C933.066895,65.176544 934.400330,57.917240 938.669739,50.854790 
z"/>
<path fill="#656C73" opacity="1.000000" stroke="none" 
	d="
M677.725891,83.325378 
	C678.171814,83.625946 678.305786,83.729553 678.455017,83.801277 
	C688.172852,88.471100 688.548340,89.939430 680.166809,97.212746 
	C670.601196,105.513527 659.302429,107.316719 647.569763,103.029366 
	C634.639404,98.304367 628.593384,88.350632 627.932007,74.669304 
	C627.414062,63.955772 629.618591,54.375626 637.691284,46.849525 
	C646.900513,38.263889 657.752502,37.108326 669.172852,41.051586 
	C679.559143,44.637814 685.201843,52.583191 686.961731,63.233093 
	C688.902954,74.980492 688.784851,75.000008 676.838501,75.000000 
	C664.354248,74.999992 651.869995,75.000000 639.050598,75.000000 
	C640.752197,82.355667 642.886963,88.716042 650.202515,92.122810 
	C659.459351,96.433586 668.788452,94.141403 674.895447,85.743576 
	C675.554749,84.836952 675.560059,82.967171 677.725891,83.325378 
z"/>
<path fill="#656C73" opacity="1.000000" stroke="none" 
	d="
M808.588989,58.898834 
	C814.133667,45.368736 823.928406,38.738304 838.127441,39.040394 
	C853.682251,39.371326 864.508179,50.331284 866.004578,64.674622 
	C867.081726,75.000008 867.081787,74.999947 856.448608,75.000015 
	C844.799683,75.000092 833.150330,75.058578 821.502197,74.962158 
	C818.327637,74.935890 818.000122,75.448929 818.741821,78.873604 
	C821.825073,93.108887 838.970764,98.833580 850.162354,90.053009 
	C851.817688,88.754257 852.612305,86.988449 853.784302,85.491364 
	C855.350647,83.490517 856.458496,83.098503 858.740112,84.251648 
	C866.499634,88.173225 866.867126,89.702904 860.335754,96.103493 
	C852.816162,103.472534 843.407959,106.433517 833.247864,104.807068 
	C818.411926,102.432114 810.386963,94.355240 807.406006,80.320320 
	C805.958008,73.503204 806.310486,66.172905 808.588989,58.898834 
z"/>
<path fill="#656C73" opacity="1.000000" stroke="none" 
	d="
M469.230103,92.566711 
	C465.258667,85.824753 462.656128,78.945602 463.070618,71.441986 
	C463.865204,57.058052 470.044983,46.210693 482.720062,41.225857 
	C495.840576,36.065857 511.006256,39.341228 519.340698,50.045361 
	C526.727234,59.532131 528.391663,70.332733 525.405090,82.406982 
	C519.594116,105.899849 487.505524,112.576897 471.865967,95.372681 
	C471.083496,94.511955 470.229950,93.715889 469.230103,92.566711 
z"/>
<path fill="#656C73" opacity="1.000000" stroke="none" 
	d="
M426.842499,104.999924 
	C407.663940,106.084122 393.619873,90.854866 393.776428,72.403908 
	C393.889526,59.075722 400.846466,45.462326 414.540680,40.782223 
	C434.795258,33.860058 456.267670,47.847752 457.067474,69.094376 
	C457.400787,77.947998 455.819305,86.003120 450.366821,93.173920 
	C444.540771,100.836105 436.614075,104.226120 426.842499,104.999924 
z"/>
<path fill="#656C73" opacity="1.000000" stroke="none" 
	d="
M1023.000000,76.725449 
	C1023.250732,71.015587 1022.501587,65.764336 1024.146729,60.544327 
	C1029.982544,42.027607 1050.711914,34.444248 1067.430420,41.773399 
	C1079.868164,47.225948 1087.487915,59.728088 1085.925903,76.071495 
	C1084.706665,88.828453 1077.839233,99.510796 1064.726196,103.467735 
	C1044.341675,109.618889 1025.606689,98.534531 1023.000000,76.725449 
z"/>
<path fill="#656C73" opacity="1.000000" stroke="none" 
	d="
M1640.022949,50.000000 
	C1631.073853,49.037060 1623.399048,58.607609 1623.074097,68.504730 
	C1622.740601,78.659889 1622.731934,88.844727 1623.118774,98.996086 
	C1623.298218,103.703346 1620.628052,103.186218 1617.844849,102.961723 
	C1615.303955,102.756760 1611.805298,104.651443 1611.891724,99.182487 
	C1612.178467,81.021355 1612.047729,62.852615 1611.947998,44.687508 
	C1611.933228,42.001389 1612.476562,40.921921 1615.470093,40.916595 
	C1622.623657,40.903873 1622.623291,40.727200 1623.462402,47.927567 
	C1628.302490,42.487984 1634.185547,39.239471 1641.082642,39.090977 
	C1658.052002,38.725616 1665.042969,47.295177 1665.862915,62.323627 
	C1666.533813,74.619682 1665.874512,86.983589 1666.082886,99.312721 
	C1666.138794,102.629921 1664.869751,103.071716 1662.026123,103.063751 
	C1654.000488,103.041260 1654.000000,103.160339 1654.000000,95.367035 
	C1653.999878,84.867615 1653.591187,74.346878 1654.137573,63.875961 
	C1654.529053,56.372688 1647.967163,48.995628 1640.022949,50.000000 
z"/>
<path fill="#656C73" opacity="1.000000" stroke="none" 
	d="
M1440.425537,92.838249 
	C1447.561646,88.672943 1451.045288,82.805527 1451.010498,74.868263 
	C1450.966797,64.883011 1451.269409,54.887207 1450.891113,44.916126 
	C1450.689331,39.593128 1454.091675,41.128296 1456.734009,41.031204 
	C1459.404663,40.933086 1462.199219,40.024582 1462.117920,44.880630 
	C1461.820068,62.683014 1461.908813,80.494255 1462.077759,98.300018 
	C1462.111084,101.815765 1461.542725,103.434273 1457.545044,103.107506 
	C1454.271484,102.839920 1451.023804,103.432259 1451.975708,98.429489 
	C1452.146484,97.531700 1452.000000,96.573540 1452.000000,94.565773 
	C1448.109131,98.511002 1444.733398,101.401367 1440.429565,103.242714 
	C1426.126831,109.362007 1411.469727,101.790573 1409.008057,86.588020 
	C1406.685425,72.244225 1408.584961,57.774902 1407.998535,43.375351 
	C1407.931030,41.719082 1408.561157,41.176384 1410.271729,40.953632 
	C1419.348267,39.771683 1420.000000,40.277534 1420.000000,49.413509 
	C1420.000000,59.398952 1420.233276,69.391312 1419.937500,79.367981 
	C1419.612305,90.331612 1428.145386,97.163361 1440.425537,92.838249 
z"/>
<path fill="#656C73" opacity="1.000000" stroke="none" 
	d="
M1888.522949,102.789078 
	C1876.263916,107.485481 1863.710449,104.899689 1857.980835,94.441734 
	C1856.161255,91.120705 1855.079102,87.500999 1855.045288,83.748184 
	C1854.928467,70.755341 1855.209717,57.755810 1854.900757,44.769260 
	C1854.770508,39.297237 1858.371582,41.269802 1860.890381,41.037720 
	C1863.720825,40.776943 1866.292480,40.402313 1866.119629,45.045475 
	C1865.735596,55.359653 1866.018433,65.698036 1865.989868,76.026436 
	C1865.979858,79.660233 1866.753174,83.119087 1867.852295,86.561676 
	C1869.347656,91.245682 1872.879517,93.340065 1877.344604,93.949539 
	C1883.999634,94.857941 1890.034058,93.378105 1893.794556,87.346542 
	C1896.571167,82.892746 1898.161377,77.946869 1898.050659,72.482521 
	C1897.865234,63.323921 1898.088745,54.157455 1897.947144,44.997284 
	C1897.903809,42.190922 1898.305298,40.859722 1901.659546,40.903057 
	C1908.997070,40.997841 1909.000000,40.780731 1909.000000,48.309807 
	C1909.000122,64.802063 1908.948120,81.294617 1909.044067,97.786308 
	C1909.063110,101.062660 1909.226562,103.670052 1904.548462,103.091553 
	C1901.093018,102.664230 1896.732788,104.133385 1897.973145,97.946152 
	C1898.055420,97.535881 1897.835205,97.064995 1897.632568,95.936035 
	C1894.824585,98.790215 1892.257690,101.298973 1888.522949,102.789078 
z"/>
<path fill="#656C73" opacity="1.000000" stroke="none" 
	d="
M926.310242,49.281124 
	C919.116394,66.606377 912.071655,83.573669 905.292603,100.646477 
	C904.497314,102.649399 903.695679,102.971634 901.871460,103.039780 
	C893.207031,103.363487 893.107483,103.455475 889.797058,95.399971 
	C882.456604,77.537628 875.228210,59.629192 867.972595,41.785038 
	C868.509583,41.428596 868.751526,41.130806 869.008850,41.116871 
	C880.896912,40.473118 880.723999,40.537029 886.084290,55.734299 
	C889.881165,66.499001 894.225403,77.070610 898.727112,88.772888 
	C902.434387,79.145142 905.739136,70.542107 909.060059,61.945316 
	C911.460266,55.731998 913.884399,49.527905 916.292542,43.317673 
	C916.956360,41.605877 918.050964,41.003136 920.014221,40.929203 
	C929.148987,40.585209 929.145569,40.494961 926.310242,49.281124 
z"/>
<path fill="#656C73" opacity="1.000000" stroke="none" 
	d="
M1372.000000,76.971863 
	C1372.000000,69.810272 1371.833984,63.138245 1372.070435,56.480507 
	C1372.187378,53.185310 1371.564087,51.530067 1367.811523,51.909775 
	C1365.978638,52.095249 1362.960815,53.057888 1362.349121,51.092884 
	C1361.497437,48.358105 1361.725952,45.102318 1362.220215,42.193172 
	C1362.597046,39.974232 1365.094360,40.895428 1366.474609,41.090500 
	C1371.196899,41.757908 1372.656738,39.784050 1372.045532,35.349335 
	C1371.775024,33.386776 1372.252075,31.317099 1371.951172,29.363625 
	C1371.156860,24.208662 1373.110474,22.985847 1378.290649,22.743067 
	C1384.256104,22.463486 1384.116211,25.270514 1384.056030,29.462517 
	C1383.894043,40.753960 1384.006104,41.038654 1395.118896,40.877682 
	C1400.464722,40.800243 1398.837769,44.160904 1398.969727,46.778980 
	C1399.106934,49.501419 1399.850586,52.212341 1395.063599,52.131737 
	C1384.004761,51.945518 1384.000000,52.229061 1384.000000,63.093449 
	C1384.000000,70.259544 1383.983032,77.425690 1384.004761,84.591713 
	C1384.027710,92.119156 1388.188110,95.691490 1395.473267,93.601349 
	C1399.046509,92.576187 1398.968750,93.864777 1399.030762,96.438492 
	C1399.224121,104.478714 1395.092163,107.336578 1385.730225,104.760658 
	C1378.386963,102.740166 1373.857788,99.210388 1372.840942,90.271294 
	C1372.354004,85.989212 1372.045654,81.751724 1372.000000,76.971863 
z"/>
<path fill="#656C73" opacity="1.000000" stroke="none" 
	d="
M1682.000000,80.977371 
	C1682.000000,72.484825 1681.855347,64.484085 1682.070190,56.493008 
	C1682.157959,53.223480 1681.592529,51.761349 1677.832520,51.902344 
	C1671.177734,52.151886 1669.309692,49.297367 1671.002319,42.681488 
	C1671.738403,39.804512 1673.942749,41.112984 1675.467407,41.063675 
	C1681.996460,40.852520 1681.999390,40.938141 1682.000122,34.381737 
	C1682.000244,32.549126 1682.237427,30.678911 1681.954102,28.891167 
	C1681.203613,24.153723 1682.840942,22.751625 1687.771118,22.786905 
	C1692.381104,22.819893 1693.416870,24.219334 1693.087402,28.430500 
	C1692.778809,32.373066 1691.797729,37.351337 1693.696045,40.069843 
	C1695.565796,42.747318 1700.820312,40.857925 1704.576538,40.927555 
	C1707.048950,40.973400 1708.023682,41.479942 1708.078735,44.228668 
	C1708.234497,52.002666 1708.383179,51.999691 1700.618042,52.000000 
	C1693.000122,52.000309 1693.000122,52.000305 1693.000000,59.537254 
	C1693.000000,67.034302 1692.991821,74.531357 1693.001953,82.028397 
	C1693.015869,92.349518 1695.486694,94.519470 1705.615479,93.178513 
	C1706.238525,93.096054 1707.362549,93.062737 1707.459229,93.313210 
	C1708.570312,96.191277 1707.747070,99.219902 1707.990234,102.179085 
	C1708.161987,104.269409 1706.383179,103.952026 1705.295776,104.301750 
	C1696.399170,107.162949 1681.174805,102.339699 1681.983154,87.969627 
	C1682.104614,85.810616 1682.000000,83.638901 1682.000000,80.977371 
z"/>
<path fill="#656C73" opacity="1.000000" stroke="none" 
	d="
M1005.162109,102.998352 
	C1002.359253,103.305031 1001.971130,102.025032 1001.974060,100.030891 
	C1002.015259,72.376579 1002.027039,44.722115 1001.958069,17.067909 
	C1001.952026,14.668275 1002.733276,14.037041 1005.086975,13.937086 
	C1014.004089,13.558403 1014.000000,13.461949 1014.000000,22.242397 
	C1014.000000,46.398331 1014.000000,70.554260 1014.000000,94.710197 
	C1014.000000,103.000420 1014.000000,103.000420 1005.162109,102.998352 
z"/>
<path fill="#656C73" opacity="1.000000" stroke="none" 
	d="
M607.000000,36.000084 
	C607.000305,29.504347 607.079102,23.507038 606.961914,17.513557 
	C606.915710,15.147171 607.291321,14.003139 610.140381,13.916746 
	C619.004456,13.647952 619.000000,13.500710 619.000000,22.291328 
	C619.000000,47.440277 618.815430,72.591690 619.151184,97.736153 
	C619.220703,102.946388 617.092163,103.202583 613.106750,103.086510 
	C609.446289,102.979897 606.722168,103.568459 606.835999,97.953392 
	C607.250977,77.476250 607.000000,56.985607 607.000000,36.000084 
z"/>
<path fill="#656C73" opacity="1.000000" stroke="none" 
	d="
M1269.074951,40.008854 
	C1272.590088,43.759552 1270.517334,48.068249 1270.715698,52.096867 
	C1270.758179,52.961315 1269.030151,52.096821 1268.266968,51.914650 
	C1255.137695,48.780643 1246.007690,55.914425 1246.000854,69.421242 
	C1245.995972,79.234161 1245.882080,89.049301 1246.067749,98.858704 
	C1246.127563,102.015366 1245.376953,103.143456 1241.994141,103.089622 
	C1234.003174,102.962433 1234.000000,103.152496 1234.000000,95.366669 
	C1233.999878,78.734604 1234.196045,62.098728 1233.872314,45.472969 
	C1233.783325,40.899979 1235.838745,40.733158 1239.170776,40.971939 
	C1242.101929,41.181988 1245.983398,39.816273 1245.032471,45.296860 
	C1244.811890,46.568020 1245.000000,47.910095 1245.000000,50.819199 
	C1247.425903,45.047554 1251.254395,42.855095 1255.349731,40.878529 
	C1259.705200,38.776360 1264.063965,38.262722 1269.074951,40.008854 
z"/>
<path fill="#656C73" opacity="1.000000" stroke="none" 
	d="
M1842.000000,50.000000 
	C1842.000000,66.489212 1841.805786,82.482300 1842.124512,98.465157 
	C1842.213867,102.943962 1840.299072,103.308952 1836.877808,103.031990 
	C1833.955444,102.795433 1830.807983,104.201080 1830.867554,98.727234 
	C1831.159790,71.915169 1831.160889,45.096424 1830.866333,18.284414 
	C1830.806274,12.819023 1833.928467,14.192197 1836.866211,13.966976 
	C1840.270142,13.706012 1842.296631,14.014262 1842.124390,18.525665 
	C1841.730835,28.837008 1842.000000,39.173637 1842.000000,50.000000 
z"/>
<path fill="#FFFFFF" opacity="1.000000" stroke="none" 
	d="
M557.324829,50.888344 
	C571.324402,47.170586 582.853088,56.085754 583.055115,70.102356 
	C583.150146,76.700752 582.196777,82.584923 577.706543,87.949905 
	C568.810303,98.579323 550.016357,95.459549 545.458679,80.011467 
	C541.858887,67.810341 546.703674,55.842438 557.324829,50.888344 
z"/>
<path fill="#FFFFFF" opacity="1.000000" stroke="none" 
	d="
M780.312500,36.811226 
	C789.926514,50.668095 789.391479,70.559105 778.559753,82.603683 
	C773.341370,88.406494 765.948242,91.298203 758.096436,91.913383 
	C752.474548,92.353867 746.788208,91.911049 741.134766,92.040489 
	C738.819458,92.093491 737.945557,91.438614 737.955505,88.982018 
	C738.037903,68.685669 737.999146,48.388840 738.007751,28.092159 
	C738.008362,26.637415 737.688599,24.963940 740.061462,25.006308 
	C750.687927,25.196051 761.494385,23.729866 771.486023,29.117350 
	C774.955505,30.988085 777.247375,34.021969 780.312500,36.811226 
z"/>
<path fill="#FFFFFF" opacity="1.000000" stroke="none" 
	d="
M1941.718262,53.680714 
	C1947.729858,48.625984 1954.433960,48.667805 1960.520752,51.445377 
	C1967.393066,54.581474 1971.263550,60.773411 1971.972900,68.501816 
	C1972.585815,75.178780 1971.794922,81.509094 1967.443726,87.085770 
	C1959.664185,97.055771 1943.750854,95.934868 1937.154663,85.969963 
	C1930.350342,75.690430 1932.614868,59.643318 1941.718262,53.680714 
z"/>
<path fill="#FFFFFF" opacity="1.000000" stroke="none" 
	d="
M1521.806641,67.617065 
	C1522.795044,75.185333 1521.294067,81.845924 1516.887695,87.511978 
	C1508.855469,97.840408 1491.282471,95.859711 1485.828003,83.763138 
	C1480.112183,71.086807 1483.427734,57.470139 1494.345337,51.896202 
	C1505.419189,46.242519 1518.110840,52.728130 1521.004395,64.895721 
	C1521.189209,65.672630 1521.444214,66.432831 1521.806641,67.617065 
z"/>
<path fill="#FFFFFF" opacity="1.000000" stroke="none" 
	d="
M1114.918701,52.615349 
	C1121.978394,49.081070 1129.105103,48.247906 1135.202393,52.979996 
	C1142.597778,58.719475 1146.236450,66.418892 1144.107422,76.301109 
	C1141.578613,88.039452 1135.378906,93.320366 1125.015137,94.207893 
	C1116.196289,94.963112 1107.202148,85.579842 1106.000977,76.874374 
	C1104.687500,67.356270 1106.876587,59.119759 1114.918701,52.615349 
z"/>
<path fill="#FFFFFF" opacity="1.000000" stroke="none" 
	d="
M1563.971802,51.576500 
	C1571.808105,49.231606 1579.133667,48.550293 1585.304932,54.801441 
	C1585.655151,55.156162 1586.145630,55.454350 1586.325439,55.882027 
	C1587.502930,58.681316 1590.797974,61.398392 1589.502197,64.173996 
	C1588.504150,66.312035 1584.670532,64.906738 1582.120728,64.950089 
	C1574.146362,65.085693 1566.166626,64.910286 1558.192017,65.039085 
	C1554.548218,65.097939 1554.347412,63.505222 1555.671753,60.817879 
	C1557.510742,57.086960 1559.826416,53.776821 1563.971802,51.576500 
z"/>
<path fill="#FFFFFF" opacity="1.000000" stroke="none" 
	d="
M1204.895264,65.000000 
	C1195.587769,65.000000 1186.763062,65.000000 1177.929077,65.000000 
	C1178.628540,57.480999 1185.029297,50.537670 1191.522583,49.987949 
	C1204.038452,48.928356 1210.869263,53.951904 1212.771362,65.000000 
	C1210.255615,65.000000 1207.816772,65.000000 1204.895264,65.000000 
z"/>
<path fill="#FFFFFF" opacity="1.000000" stroke="none" 
	d="
M953.105896,65.000000 
	C950.181580,65.000000 947.739258,65.000000 945.191101,65.000000 
	C947.978577,54.011353 953.841003,49.770527 965.374634,50.000160 
	C972.737000,50.146744 978.411743,55.690128 980.483154,65.000000 
	C971.474426,65.000000 962.531128,65.000000 953.105896,65.000000 
z"/>
<path fill="#FFFFFF" opacity="1.000000" stroke="none" 
	d="
M649.078796,65.000000 
	C645.826843,65.000000 643.062012,65.000000 640.161560,65.000000 
	C643.338989,54.439747 649.393494,48.424313 661.470093,50.101967 
	C667.801819,50.981567 674.152100,54.448658 675.481628,65.000000 
	C666.823120,65.000000 658.194519,65.000000 649.078796,65.000000 
z"/>
<path fill="#FFFFFF" opacity="1.000000" stroke="none" 
	d="
M823.204346,56.298515 
	C830.704285,46.032963 847.527527,48.997826 852.107910,57.667240 
	C852.780212,58.939766 853.393555,60.275841 853.793213,61.652477 
	C854.393127,63.719021 854.091064,65.072227 851.313477,65.042694 
	C840.690857,64.929718 830.066223,64.997025 819.133911,64.997025 
	C819.767090,61.646904 820.456177,58.718765 823.204346,56.298515 
z"/>
<path fill="#FFFFFF" opacity="1.000000" stroke="none" 
	d="
M508.741272,88.754684 
	C502.389801,94.398079 495.326599,95.660812 487.902466,92.885414 
	C479.043976,89.573830 475.834412,82.232727 474.932587,73.280159 
	C473.986572,63.889061 480.704315,53.169849 488.828583,50.885204 
	C502.309998,47.094044 512.969238,55.302494 514.888977,68.483345 
	C515.955994,75.808838 514.387451,82.832176 508.741272,88.754684 
z"/>
<path fill="#FFFFFF" opacity="1.000000" stroke="none" 
	d="
M445.957397,73.718430 
	C444.740448,78.703049 443.634430,83.229637 440.520966,87.045151 
	C432.217865,97.220352 415.872925,96.625168 408.559601,84.298187 
	C400.925415,71.430420 406.911896,54.783710 419.628601,50.828709 
	C431.615265,47.100750 441.851074,54.575935 444.835236,65.571556 
	C445.488251,67.977768 446.637115,70.575203 445.957397,73.718430 
z"/>
<path fill="#FFFFFF" opacity="1.000000" stroke="none" 
	d="
M1063.022705,92.427803 
	C1053.456543,95.580276 1045.196899,94.562332 1038.870239,86.353035 
	C1032.185059,77.678421 1032.430664,66.509995 1038.408936,58.150291 
	C1043.663940,50.801983 1051.233521,48.163380 1059.747803,50.473682 
	C1068.634888,52.885155 1075.190552,62.329746 1074.894897,71.817947 
	C1074.626953,80.416260 1071.149414,87.644310 1063.022705,92.427803 
z"/>
</svg>