<svg xmlns="http://www.w3.org/2000/svg" xmlns:v="https://svgstorm.com"
viewBox = "0 0 480 480"
width="480"
height="480">
<g fill="None" fill-opacity="0.0" stroke="#000000" stroke-opacity="1.00" stroke-width="0.3"><path d="
M 0.00 480.00 
L 480.00 480.00
L 480.00 0.00
L 0.00 0.00
L 0.00 480.00
M 184.00 61.00 
C 205.60 64.51 216.79 92.43 202.75 109.75 C 188.70 127.06 161.51 125.23 151.70 104.30 C 141.88 83.38 159.52 57.02 184.00 61.00
M 98.00 72.00 
C 117.25 76.77 107.73 109.33 88.33 102.67 C 68.93 96.01 77.23 66.86 98.00 72.00
M 289.00 88.00 
C 298.05 85.10 309.41 89.23 319.00 88.00 C 328.59 86.77 339.16 88.38 349.00 88.00 C 358.84 87.62 369.01 87.78 379.00 88.00 C 388.99 88.22 399.99 87.10 410.00 88.00
C 413.82 78.75 425.44 72.99 431.92 84.08 C 438.39 95.17 423.35 105.82 414.00 99.00
C 407.89 99.48 402.54 108.42 396.77 110.77 C 391.00 113.12 386.20 120.98 380.00 123.00
C 399.30 148.10 370.18 181.80 342.92 169.08 C 315.67 156.35 322.62 114.51 352.00 112.00
C 354.56 111.58 356.49 111.59 359.00 112.00
C 366.41 112.37 373.63 115.70 378.00 122.00
C 389.50 113.97 401.46 106.04 412.00 97.00
C 410.92 95.52 410.04 91.91 410.00 90.00
C 390.36 91.77 369.73 90.00 350.00 90.00 C 330.27 90.00 309.63 91.77 290.00 90.00
C 292.02 102.32 286.73 117.84 273.00 121.00
C 277.00 126.50 273.86 140.65 277.78 146.22 C 281.70 151.80 277.24 167.18 284.00 170.00
C 285.55 167.54 289.44 169.65 291.00 170.00
C 304.10 172.90 313.76 185.86 309.67 199.67 C 305.58 213.48 290.08 219.13 278.00 214.00
C 274.65 223.47 269.61 232.34 267.00 242.00
C 278.42 242.00 288.53 243.75 292.00 256.00
C 292.86 259.05 292.74 261.03 292.00 264.00
C 286.94 284.43 266.38 274.73 251.00 278.00
C 252.56 279.71 247.33 287.81 246.08 291.08 C 244.82 294.34 243.57 299.49 241.07 304.07 C 238.58 308.65 240.27 310.73 235.69 316.69 C 231.12 322.66 230.90 336.78 225.00 342.00
C 229.29 350.71 229.32 364.11 217.77 367.77 C 206.23 371.43 196.26 362.07 196.00 351.00
C 179.39 352.50 160.74 346.12 144.33 343.67 C 127.92 341.23 107.96 340.83 92.00 336.00
C 89.51 355.63 60.86 361.52 49.75 344.25 C 38.65 326.98 55.34 301.32 77.00 309.00
C 77.89 297.01 86.74 286.45 89.78 274.78 C 92.81 263.11 99.05 251.50 102.92 239.92 C 106.80 228.35 112.25 216.68 116.00 205.00
C 105.75 201.43 98.23 194.76 95.07 183.93 C 91.91 173.10 96.00 160.33 104.75 152.75 C 113.50 145.18 126.67 143.59 136.69 148.31 C 146.72 153.02 153.29 161.37 154.78 172.22 C 156.27 183.07 150.38 194.96 140.92 200.92 C 131.46 206.88 115.80 203.90 113.69 216.69 C 111.59 229.49 105.06 235.60 102.07 247.07 C 99.08 258.55 93.95 267.42 90.22 278.22 C 86.50 289.03 82.77 299.06 78.00 309.00
C 80.86 312.73 85.07 313.14 88.25 317.75 C 91.43 322.36 92.00 328.19 92.00 334.00
C 97.27 331.77 106.95 337.11 113.01 336.99 C 119.06 336.88 127.68 338.99 134.00 340.00 C 140.32 341.01 148.66 341.73 155.00 343.00 C 161.34 344.27 169.71 344.62 175.67 346.33 C 181.63 348.04 191.35 346.25 196.00 350.00
C 202.32 338.44 210.94 332.71 224.00 341.00
C 223.84 331.87 232.66 318.82 236.31 310.31 C 239.95 301.79 242.83 286.01 249.00 279.00
C 238.53 278.93 228.53 276.09 225.01 264.99 C 221.48 253.90 232.81 246.97 232.00 236.00
C 240.66 244.43 253.39 241.70 265.00 242.00
C 263.26 237.85 270.01 231.71 270.32 227.32 C 270.64 222.94 276.07 217.77 276.00 213.00
C 268.49 209.24 264.07 201.35 264.00 193.00 C 263.94 184.65 267.83 177.09 275.70 172.70 C 283.57 168.30 277.44 157.05 276.22 148.78 C 275.00 140.50 272.26 129.53 271.00 121.00
C 252.22 122.23 237.15 102.23 247.31 85.31 C 257.46 68.38 280.60 71.78 289.00 88.00
M 217.00 169.00 
C 239.16 171.73 251.58 199.05 238.25 217.25 C 224.91 235.44 197.47 233.30 186.70 213.30 C 175.92 193.31 193.48 166.10 217.00 169.00
M 417.00 200.00 
C 417.69 202.78 417.68 204.27 417.00 207.00
C 415.14 214.49 408.67 219.65 409.00 228.00
C 406.27 226.01 403.71 223.95 401.00 222.00
C 389.52 218.93 375.17 223.77 364.00 221.00
C 352.59 218.17 343.55 206.59 351.31 194.31 C 359.06 182.02 374.11 187.14 387.00 186.00 C 399.89 184.86 413.42 185.55 417.00 200.00
M 63.00 215.00 
C 82.50 217.13 79.55 249.78 59.00 247.00 C 38.45 244.22 42.24 212.73 63.00 215.00
M 151.00 252.00 
C 188.74 258.76 176.76 320.30 138.33 311.67 C 99.90 303.04 112.31 245.07 151.00 252.00
M 410.00 265.00 
C 431.87 268.12 441.68 298.01 427.25 314.25 C 412.81 330.49 384.97 328.45 376.22 306.78 C 367.48 285.10 386.15 261.59 410.00 265.00
M 301.00 308.00 
C 319.97 311.93 313.80 344.11 293.78 339.22 C 273.76 334.33 280.38 303.73 301.00 308.00
M 419.00 343.00 
C 456.77 349.77 445.42 410.81 407.00 403.00 C 368.58 395.19 380.75 336.15 419.00 343.00
M 316.00 350.00 
C 326.72 362.19 349.22 350.20 359.75 363.25 C 370.28 376.29 360.67 396.20 344.93 396.93 C 329.19 397.65 307.50 400.62 297.23 387.77 C 286.96 374.92 298.19 355.16 314.00 356.00
C 315.95 354.45 313.80 351.10 316.00 350.00 Z"/>
</g>
<g fill="None" fill-opacity="0.0" stroke="#9FA4A9" stroke-opacity="1.00" stroke-width="0.3"><path d="
M 184.00 61.00 
C 159.52 57.02 141.88 83.38 151.70 104.30 C 161.51 125.23 188.70 127.06 202.75 109.75 C 216.79 92.43 205.60 64.51 184.00 61.00
M 184.00 119.00 
C 180.71 119.81 178.18 119.57 175.00 119.00
C 155.21 115.45 143.96 93.82 154.75 76.75 C 165.55 59.68 189.09 57.32 201.75 74.25 C 214.41 91.17 203.54 114.16 184.00 119.00 Z"/>
</g>
<g fill="None" fill-opacity="0.0" stroke="#030303" stroke-opacity="1.00" stroke-width="0.3"><path d="
M 175.00 119.00 
C 171.33 116.27 164.75 108.52 164.02 102.98 C 163.30 97.43 163.96 95.76 167.00 92.00
C 169.48 94.15 173.49 94.40 175.00 91.00
C 178.53 93.32 181.93 94.46 186.00 93.00
C 187.64 100.04 197.58 92.49 196.00 101.00
C 191.86 102.23 193.02 107.36 190.25 110.25 C 187.47 113.13 183.50 114.82 184.00 119.00
C 203.54 114.16 214.41 91.17 201.75 74.25 C 189.09 57.32 165.55 59.68 154.75 76.75 C 143.96 93.82 155.21 115.45 175.00 119.00 Z"/>
</g>
<g fill="None" fill-opacity="0.0" stroke="#179A57" stroke-opacity="1.00" stroke-width="0.3"><path d="
M 98.00 72.00 
C 77.23 66.86 68.93 96.01 88.33 102.67 C 107.73 109.33 117.25 76.77 98.00 72.00 Z"/>
</g>
<g fill="None" fill-opacity="0.0" stroke="#547BBC" stroke-opacity="1.00" stroke-width="0.3"><path d="
M 271.00 121.00 
C 270.87 121.01 272.82 121.04 273.00 121.00
C 286.73 117.84 292.02 102.32 290.00 90.00
C 289.92 89.51 290.00 89.00 290.00 89.00
C 289.88 88.74 289.17 88.33 289.00 88.00
C 280.60 71.78 257.46 68.38 247.31 85.31 C 237.15 102.23 252.22 122.23 271.00 121.00 Z"/>
</g>
<g fill="None" fill-opacity="0.0" stroke="#F4B712" stroke-opacity="1.00" stroke-width="0.3"><path d="
M 410.00 88.00 
C 409.82 88.43 410.00 89.00 410.00 89.00
C 410.00 89.50 410.00 90.00 410.00 90.00
C 410.04 91.91 410.92 95.52 412.00 97.00
C 412.15 97.21 413.85 98.89 414.00 99.00
C 423.35 105.82 438.39 95.17 431.92 84.08 C 425.44 72.99 413.82 78.75 410.00 88.00 Z"/>
</g>
<g fill="None" fill-opacity="0.0" stroke="#636A6E" stroke-opacity="1.00" stroke-width="0.3"><path d="
M 290.00 89.00 
C 309.29 91.78 330.47 88.62 350.00 89.00 C 369.53 89.38 390.53 90.76 410.00 89.00
C 410.00 89.00 409.82 88.43 410.00 88.00
C 399.99 87.10 388.99 88.22 379.00 88.00 C 369.01 87.78 358.84 87.62 349.00 88.00 C 339.16 88.38 328.59 86.77 319.00 88.00 C 309.41 89.23 298.05 85.10 289.00 88.00
C 289.17 88.33 289.88 88.74 290.00 89.00 Z"/>
</g>
<g fill="None" fill-opacity="0.0" stroke="#ABB9C0" stroke-opacity="1.00" stroke-width="0.3"><path d="
M 290.00 90.00 
C 309.63 91.77 330.27 90.00 350.00 90.00 C 369.73 90.00 390.36 91.77 410.00 90.00
C 410.00 90.00 410.00 89.50 410.00 89.00
C 390.53 90.76 369.53 89.38 350.00 89.00 C 330.47 88.62 309.29 91.78 290.00 89.00
C 290.00 89.00 289.92 89.51 290.00 90.00 Z"/>
</g>
<g fill="None" fill-opacity="0.0" stroke="#CEA164" stroke-opacity="1.00" stroke-width="0.3"><path d="
M 175.00 119.00 
C 178.18 119.57 180.71 119.81 184.00 119.00
C 183.50 114.82 187.47 113.13 190.25 110.25 C 193.02 107.36 191.86 102.23 196.00 101.00
C 197.58 92.49 187.64 100.04 186.00 93.00
C 181.93 94.46 178.53 93.32 175.00 91.00
C 173.49 94.40 169.48 94.15 167.00 92.00
C 163.96 95.76 163.30 97.43 164.02 102.98 C 164.75 108.52 171.33 116.27 175.00 119.00
M 171.00 98.00 
C 169.79 99.02 166.13 98.32 165.00 98.00
C 166.54 95.48 169.17 96.20 171.00 98.00
M 182.00 98.00 
C 176.99 100.34 176.21 95.05 182.00 98.00
M 177.00 105.00 
C 177.23 105.34 177.14 106.55 177.00 107.00
C 176.14 109.70 171.22 109.81 170.25 106.75 C 169.28 103.69 175.62 102.99 177.00 105.00 Z"/>
</g>
<g fill="None" fill-opacity="0.0" stroke="#866D4A" stroke-opacity="1.00" stroke-width="0.3"><path d="
M 171.00 98.00 
C 169.17 96.20 166.54 95.48 165.00 98.00
C 166.13 98.32 169.79 99.02 171.00 98.00 Z"/>
</g>
<g fill="None" fill-opacity="0.0" stroke="#705D42" stroke-opacity="1.00" stroke-width="0.3"><path d="
M 182.00 98.00 
C 176.21 95.05 176.99 100.34 182.00 98.00 Z"/>
</g>
<g fill="None" fill-opacity="0.0" stroke="#9CA2A7" stroke-opacity="1.00" stroke-width="0.3"><path d="
M 359.00 112.00 
C 356.71 111.89 354.29 111.89 352.00 112.00
C 322.62 114.51 315.67 156.35 342.92 169.08 C 370.18 181.80 399.30 148.10 380.00 123.00
C 386.20 120.98 391.00 113.12 396.77 110.77 C 402.54 108.42 407.89 99.48 414.00 99.00
C 413.85 98.89 412.15 97.21 412.00 97.00
C 401.46 106.04 389.50 113.97 378.00 122.00
C 373.63 115.70 366.41 112.37 359.00 112.00
M 376.00 161.00 
C 371.65 165.35 367.98 167.54 362.00 169.00
C 357.85 170.01 354.70 169.60 351.00 169.00
C 344.56 167.95 341.60 166.60 337.00 162.00
C 331.72 156.72 329.51 153.29 328.00 146.00
C 327.32 142.74 327.29 140.22 328.00 137.00
C 332.10 118.50 351.44 107.86 368.69 116.31 C 385.94 124.75 388.75 148.25 376.00 161.00 Z"/>
</g>
<g fill="None" fill-opacity="0.0" stroke="#D7522F" stroke-opacity="1.00" stroke-width="0.3"><path d="
M 177.00 107.00 
C 175.45 107.84 172.66 106.37 171.00 107.00
C 170.65 103.77 175.11 105.43 177.00 105.00
C 175.62 102.99 169.28 103.69 170.25 106.75 C 171.22 109.81 176.14 109.70 177.00 107.00 Z"/>
</g>
<g fill="None" fill-opacity="0.0" stroke="#40120A" stroke-opacity="1.00" stroke-width="0.3"><path d="
M 177.00 107.00 
C 177.14 106.55 177.23 105.34 177.00 105.00
C 175.11 105.43 170.65 103.77 171.00 107.00
C 172.66 106.37 175.45 107.84 177.00 107.00 Z"/>
</g>
<g fill="None" fill-opacity="0.0" stroke="#4E5053" stroke-opacity="1.00" stroke-width="0.3"><path d="
M 352.00 112.00 
C 354.29 111.89 356.71 111.89 359.00 112.00
C 356.49 111.59 354.56 111.58 352.00 112.00 Z"/>
</g>
<g fill="None" fill-opacity="0.0" stroke="#000000" stroke-opacity="1.00" stroke-width="0.3"><path d="
M 328.00 137.00 
C 327.71 139.81 327.74 143.18 328.00 146.00
C 329.51 153.29 331.72 156.72 337.00 162.00
C 336.40 159.33 339.11 155.08 339.00 153.00
C 338.44 151.48 338.18 150.70 338.00 149.00
C 336.99 144.72 336.88 140.60 338.00 136.00
C 340.32 126.51 346.64 119.03 357.67 120.33 C 368.70 121.63 371.73 130.87 374.00 140.00
C 375.30 145.22 375.11 143.01 373.00 147.00
C 372.17 150.71 376.52 158.02 376.00 161.00
C 388.75 148.25 385.94 124.75 368.69 116.31 C 351.44 107.86 332.10 118.50 328.00 137.00 Z"/>
</g>
<g fill="None" fill-opacity="0.0" stroke="#ACBAC1" stroke-opacity="1.00" stroke-width="0.3"><path d="
M 271.00 121.00 
C 272.26 129.53 275.00 140.50 276.22 148.78 C 277.44 157.05 283.57 168.30 275.70 172.70 C 267.83 177.09 263.94 184.65 264.00 193.00 C 264.07 201.35 268.49 209.24 276.00 213.00
C 276.07 217.77 270.64 222.94 270.32 227.32 C 270.01 231.71 263.26 237.85 265.00 242.00
C 265.50 242.00 266.50 242.00 267.00 242.00
C 269.61 232.34 274.65 223.47 278.00 214.00
C 290.08 219.13 305.58 213.48 309.67 199.67 C 313.76 185.86 304.10 172.90 291.00 170.00
C 289.02 169.81 285.81 170.75 284.00 170.00
C 277.24 167.18 281.70 151.80 277.78 146.22 C 273.86 140.65 277.00 126.50 273.00 121.00
C 272.82 121.04 270.87 121.01 271.00 121.00 Z"/>
</g>
<g fill="None" fill-opacity="0.0" stroke="#25282A" stroke-opacity="1.00" stroke-width="0.3"><path d="
M 338.00 136.00 
C 338.04 136.22 338.77 136.95 339.00 137.00
C 345.70 138.49 352.56 136.31 358.00 133.00
C 358.98 137.47 362.39 142.67 367.00 144.00
C 362.36 138.02 370.48 141.97 374.00 140.00
C 371.73 130.87 368.70 121.63 357.67 120.33 C 346.64 119.03 340.32 126.51 338.00 136.00 Z"/>
</g>
<g fill="None" fill-opacity="0.0" stroke="#E5B85F" stroke-opacity="1.00" stroke-width="0.3"><path d="
M 339.00 137.00 
C 337.99 140.37 337.57 144.95 338.00 149.00
C 338.18 150.70 338.44 151.48 339.00 153.00
C 340.43 156.87 343.14 161.39 347.70 162.30 C 352.25 163.22 349.14 167.01 351.00 169.00
C 354.70 169.60 357.85 170.01 362.00 169.00
C 363.13 167.53 361.15 163.68 362.00 162.00
C 369.13 160.87 371.74 152.51 373.00 147.00
C 375.11 143.01 375.30 145.22 374.00 140.00
C 370.48 141.97 362.36 138.02 367.00 144.00
C 362.39 142.67 358.98 137.47 358.00 133.00
C 352.56 136.31 345.70 138.49 339.00 137.00
M 345.00 143.00 
C 343.31 140.70 340.09 143.43 339.00 142.00
C 340.09 140.53 345.40 139.95 345.00 143.00
M 359.00 143.00 
C 356.84 141.18 354.27 141.99 353.00 144.00
C 351.29 140.19 359.36 139.56 359.00 143.00
M 353.00 152.00 
C 351.64 155.54 347.52 153.50 345.00 153.00
C 347.08 151.07 350.32 153.99 353.00 152.00 Z"/>
</g>
<g fill="None" fill-opacity="0.0" stroke="#5C4A27" stroke-opacity="1.00" stroke-width="0.3"><path d="
M 338.00 149.00 
C 337.57 144.95 337.99 140.37 339.00 137.00
C 338.77 136.95 338.04 136.22 338.00 136.00
C 336.88 140.60 336.99 144.72 338.00 149.00 Z"/>
</g>
<g fill="None" fill-opacity="0.0" stroke="#525557" stroke-opacity="1.00" stroke-width="0.3"><path d="
M 328.00 146.00 
C 327.74 143.18 327.71 139.81 328.00 137.00
C 327.29 140.22 327.32 142.74 328.00 146.00 Z"/>
</g>
<g fill="None" fill-opacity="0.0" stroke="#75633F" stroke-opacity="1.00" stroke-width="0.3"><path d="
M 345.00 143.00 
C 345.40 139.95 340.09 140.53 339.00 142.00
C 340.09 143.43 343.31 140.70 345.00 143.00 Z"/>
</g>
<g fill="None" fill-opacity="0.0" stroke="#6F5E3E" stroke-opacity="1.00" stroke-width="0.3"><path d="
M 359.00 143.00 
C 359.36 139.56 351.29 140.19 353.00 144.00
C 354.27 141.99 356.84 141.18 359.00 143.00 Z"/>
</g>
<g fill="None" fill-opacity="0.0" stroke="#9BA2A7" stroke-opacity="1.00" stroke-width="0.3"><path d="
M 77.00 309.00 
C 77.44 309.16 78.00 309.00 78.00 309.00
C 82.77 299.06 86.50 289.03 90.22 278.22 C 93.95 267.42 99.08 258.55 102.07 247.07 C 105.06 235.60 111.59 229.49 113.69 216.69 C 115.80 203.90 131.46 206.88 140.92 200.92 C 150.38 194.96 156.27 183.07 154.78 172.22 C 153.29 161.37 146.72 153.02 136.69 148.31 C 126.67 143.59 113.50 145.18 104.75 152.75 C 96.00 160.33 91.91 173.10 95.07 183.93 C 98.23 194.76 105.75 201.43 116.00 205.00
C 112.25 216.68 106.80 228.35 102.92 239.92 C 99.05 251.50 92.81 263.11 89.78 274.78 C 86.74 286.45 77.89 297.01 77.00 309.00
M 152.00 171.00 
C 152.72 174.26 152.57 176.83 152.00 180.00
C 151.21 191.61 142.91 198.30 133.00 202.00
C 129.61 203.27 127.33 204.29 123.00 204.00
C 99.48 202.40 87.30 174.48 103.75 156.75 C 120.21 139.02 147.02 148.54 152.00 171.00 Z"/>
</g>
<g fill="None" fill-opacity="0.0" stroke="#000000" stroke-opacity="1.00" stroke-width="0.3"><path d="
M 123.00 204.00 
C 122.60 203.34 123.49 201.58 123.00 201.00
C 116.27 200.31 112.64 196.78 110.00 191.00
C 108.88 188.54 106.79 184.14 108.00 181.00 C 109.21 177.86 106.07 171.12 109.00 169.00
C 102.82 168.23 99.56 162.67 105.00 158.00
C 113.56 160.48 121.97 155.73 130.22 158.78 C 138.48 161.82 143.20 168.80 142.00 178.00
C 152.19 177.74 139.88 192.71 138.00 195.00
C 136.55 196.76 134.07 198.36 133.00 200.00
C 132.77 200.35 133.17 201.57 133.00 202.00
C 142.91 198.30 151.21 191.61 152.00 180.00
C 152.19 177.14 152.29 173.85 152.00 171.00
C 147.02 148.54 120.21 139.02 103.75 156.75 C 87.30 174.48 99.48 202.40 123.00 204.00 Z"/>
</g>
<g fill="None" fill-opacity="0.0" stroke="#252627" stroke-opacity="1.00" stroke-width="0.3"><path d="
M 362.00 169.00 
C 367.98 167.54 371.65 165.35 376.00 161.00
C 376.52 158.02 372.17 150.71 373.00 147.00
C 371.74 152.51 369.13 160.87 362.00 162.00
C 361.15 163.68 363.13 167.53 362.00 169.00 Z"/>
</g>
<g fill="None" fill-opacity="0.0" stroke="#EA6841" stroke-opacity="1.00" stroke-width="0.3"><path d="
M 353.00 152.00 
C 350.32 153.99 347.08 151.07 345.00 153.00
C 347.52 153.50 351.64 155.54 353.00 152.00 Z"/>
</g>
<g fill="None" fill-opacity="0.0" stroke="#242626" stroke-opacity="1.00" stroke-width="0.3"><path d="
M 337.00 162.00 
C 341.60 166.60 344.56 167.95 351.00 169.00
C 349.14 167.01 352.25 163.22 347.70 162.30 C 343.14 161.39 340.43 156.87 339.00 153.00
C 339.11 155.08 336.40 159.33 337.00 162.00 Z"/>
</g>
<g fill="None" fill-opacity="0.0" stroke="#E94524" stroke-opacity="1.00" stroke-width="0.3"><path d="
M 109.00 169.00 
C 117.54 170.06 126.43 168.21 135.00 169.00
C 134.40 176.60 136.25 184.84 134.00 192.00
C 126.50 188.02 117.75 186.75 110.00 191.00
C 112.64 196.78 116.27 200.31 123.00 201.00
C 126.08 201.32 130.49 199.40 133.00 200.00
C 134.07 198.36 136.55 196.76 138.00 195.00
C 139.15 191.14 135.06 178.18 142.00 178.00
C 143.20 168.80 138.48 161.82 130.22 158.78 C 121.97 155.73 113.56 160.48 105.00 158.00
C 99.56 162.67 102.82 168.23 109.00 169.00
M 125.00 191.00 
C 125.25 191.26 125.00 192.00 125.00 192.00
C 123.77 196.71 118.27 195.05 117.00 192.00
C 116.65 191.95 115.90 191.19 116.00 191.00
C 117.13 188.98 123.71 189.67 125.00 191.00 Z"/>
</g>
<g fill="None" fill-opacity="0.0" stroke="#E9B65D" stroke-opacity="1.00" stroke-width="0.3"><path d="
M 110.00 191.00 
C 117.75 186.75 126.50 188.02 134.00 192.00
C 136.25 184.84 134.40 176.60 135.00 169.00
C 126.43 168.21 117.54 170.06 109.00 169.00
C 106.07 171.12 109.21 177.86 108.00 181.00 C 106.79 184.14 108.88 188.54 110.00 191.00
M 118.00 175.00 
C 116.17 177.22 112.20 174.89 110.00 177.00
C 108.99 172.51 115.69 173.69 118.00 175.00
M 131.00 176.00 
C 128.37 177.29 126.10 174.40 123.00 176.00
C 122.99 172.81 130.14 173.10 131.00 176.00
M 117.00 181.00 
C 115.02 178.74 113.01 179.06 111.00 181.00
C 110.34 177.00 117.65 176.97 117.00 181.00
M 129.00 181.00 
C 127.17 179.00 125.87 179.35 124.00 181.00
C 123.29 177.21 129.70 177.18 129.00 181.00 Z"/>
</g>
<g fill="None" fill-opacity="0.0" stroke="#9EA3A8" stroke-opacity="1.00" stroke-width="0.3"><path d="
M 217.00 169.00 
C 193.48 166.10 175.92 193.31 186.70 213.30 C 197.47 233.30 224.91 235.44 238.25 217.25 C 251.58 199.05 239.16 171.73 217.00 169.00
M 223.00 226.00 
C 217.85 227.85 213.31 228.10 208.00 227.00
C 195.53 224.42 188.53 216.24 186.00 204.00
C 185.32 200.74 185.29 198.22 186.00 195.00
C 190.59 174.30 214.96 163.38 232.23 177.77 C 249.50 192.16 242.42 219.01 223.00 226.00 Z"/>
</g>
<g fill="None" fill-opacity="0.0" stroke="#5F676A" stroke-opacity="1.00" stroke-width="0.3"><path d="
M 284.00 170.00 
C 285.81 170.75 289.02 169.81 291.00 170.00
C 289.44 169.65 285.55 167.54 284.00 170.00 Z"/>
</g>
<g fill="None" fill-opacity="0.0" stroke="#4C4E51" stroke-opacity="1.00" stroke-width="0.3"><path d="
M 152.00 180.00 
C 152.57 176.83 152.72 174.26 152.00 171.00
C 152.29 173.85 152.19 177.14 152.00 180.00 Z"/>
</g>
<g fill="None" fill-opacity="0.0" stroke="#010101" stroke-opacity="1.00" stroke-width="0.3"><path d="
M 186.00 195.00 
C 185.71 197.81 185.74 201.18 186.00 204.00
C 188.53 216.24 195.53 224.42 208.00 227.00
C 203.17 223.85 197.66 216.70 196.00 210.00
C 194.94 205.70 195.06 201.22 196.00 197.00
C 198.64 185.06 204.22 195.58 213.22 191.22 C 222.23 186.87 221.13 202.66 224.00 207.00
C 227.45 196.99 236.47 205.15 230.92 209.92 C 225.37 214.69 223.88 220.55 223.00 226.00
C 242.42 219.01 249.50 192.16 232.23 177.77 C 214.96 163.38 190.59 174.30 186.00 195.00 Z"/>
</g>
<g fill="None" fill-opacity="0.0" stroke="#EB633F" stroke-opacity="1.00" stroke-width="0.3"><path d="
M 118.00 175.00 
C 115.69 173.69 108.99 172.51 110.00 177.00
C 112.20 174.89 116.17 177.22 118.00 175.00 Z"/>
</g>
<g fill="None" fill-opacity="0.0" stroke="#EB5F3D" stroke-opacity="1.00" stroke-width="0.3"><path d="
M 131.00 176.00 
C 130.14 173.10 122.99 172.81 123.00 176.00
C 126.10 174.40 128.37 177.29 131.00 176.00 Z"/>
</g>
<g fill="None" fill-opacity="0.0" stroke="#72603F" stroke-opacity="1.00" stroke-width="0.3"><path d="
M 117.00 181.00 
C 117.65 176.97 110.34 177.00 111.00 181.00
C 113.01 179.06 115.02 178.74 117.00 181.00 Z"/>
</g>
<g fill="None" fill-opacity="0.0" stroke="#796641" stroke-opacity="1.00" stroke-width="0.3"><path d="
M 129.00 181.00 
C 129.70 177.18 123.29 177.21 124.00 181.00
C 125.87 179.35 127.17 179.00 129.00 181.00 Z"/>
</g>
<g fill="None" fill-opacity="0.0" stroke="#E2B25B" stroke-opacity="1.00" stroke-width="0.3"><path d="
M 138.00 195.00 
C 139.88 192.71 152.19 177.74 142.00 178.00
C 135.06 178.18 139.15 191.14 138.00 195.00 Z"/>
</g>
<g fill="None" fill-opacity="0.0" stroke="#DE382C" stroke-opacity="1.00" stroke-width="0.3"><path d="
M 364.00 221.00 
C 375.34 222.41 390.89 217.69 401.00 222.00
C 403.71 223.95 406.27 226.01 409.00 228.00
C 408.67 219.65 415.14 214.49 417.00 207.00
C 417.25 204.87 417.25 202.13 417.00 200.00
C 413.42 185.55 399.89 184.86 387.00 186.00 C 374.11 187.14 359.06 182.02 351.31 194.31 C 343.55 206.59 352.59 218.17 364.00 221.00
M 380.00 204.00 
C 377.13 207.64 373.64 211.23 370.00 214.00
C 366.94 209.83 374.43 208.68 374.92 204.92 C 375.40 201.16 366.78 198.99 370.00 195.00
C 373.80 197.38 376.24 201.68 380.00 204.00
M 401.00 212.00 
C 400.81 215.29 382.19 215.36 382.00 212.00
C 384.05 209.87 399.00 209.92 401.00 212.00 Z"/>
</g>
<g fill="None" fill-opacity="0.0" stroke="#F2B3A7" stroke-opacity="1.00" stroke-width="0.3"><path d="
M 116.00 191.00 
C 118.24 190.28 122.64 190.79 125.00 191.00
C 123.71 189.67 117.13 188.98 116.00 191.00 Z"/>
</g>
<g fill="None" fill-opacity="0.0" stroke="#97703C" stroke-opacity="1.00" stroke-width="0.3"><path d="
M 196.00 197.00 
C 195.59 200.98 195.51 206.03 196.00 210.00
C 197.66 216.70 203.17 223.85 208.00 227.00
C 213.31 228.10 217.85 227.85 223.00 226.00
C 223.88 220.55 225.37 214.69 230.92 209.92 C 236.47 205.15 227.45 196.99 224.00 207.00
C 221.13 202.66 222.23 186.87 213.22 191.22 C 204.22 195.58 198.64 185.06 196.00 197.00
M 205.00 200.00 
C 202.58 198.97 200.47 199.10 198.00 200.00
C 197.85 196.28 205.13 196.14 205.00 200.00
M 218.00 199.00 
C 216.47 200.81 213.09 197.54 211.00 200.00
C 210.65 195.92 216.65 196.47 218.00 199.00
M 217.00 205.00 
C 215.02 202.74 213.01 203.06 211.00 205.00
C 210.34 201.00 217.65 200.97 217.00 205.00
M 212.00 214.00 
C 210.67 217.17 202.84 217.25 203.00 213.00
C 205.45 215.79 208.98 215.03 212.00 214.00 Z"/>
</g>
<g fill="None" fill-opacity="0.0" stroke="#9A9897" stroke-opacity="1.00" stroke-width="0.3"><path d="
M 117.00 192.00 
C 119.42 192.35 122.56 192.22 125.00 192.00
C 125.00 192.00 125.25 191.26 125.00 191.00
C 122.64 190.79 118.24 190.28 116.00 191.00
C 115.90 191.19 116.65 191.95 117.00 192.00 Z"/>
</g>
<g fill="None" fill-opacity="0.0" stroke="#372B2A" stroke-opacity="1.00" stroke-width="0.3"><path d="
M 125.00 192.00 
C 122.56 192.22 119.42 192.35 117.00 192.00
C 118.27 195.05 123.77 196.71 125.00 192.00 Z"/>
</g>
<g fill="None" fill-opacity="0.0" stroke="#46484A" stroke-opacity="1.00" stroke-width="0.3"><path d="
M 186.00 204.00 
C 185.74 201.18 185.71 197.81 186.00 195.00
C 185.29 198.22 185.32 200.74 186.00 204.00 Z"/>
</g>
<g fill="None" fill-opacity="0.0" stroke="#FCEFEE" stroke-opacity="1.00" stroke-width="0.3"><path d="
M 380.00 204.00 
C 376.24 201.68 373.80 197.38 370.00 195.00
C 366.78 198.99 375.40 201.16 374.92 204.92 C 374.43 208.68 366.94 209.83 370.00 214.00
C 373.64 211.23 377.13 207.64 380.00 204.00 Z"/>
</g>
<g fill="None" fill-opacity="0.0" stroke="#583620" stroke-opacity="1.00" stroke-width="0.3"><path d="
M 196.00 210.00 
C 195.51 206.03 195.59 200.98 196.00 197.00
C 195.06 201.22 194.94 205.70 196.00 210.00 Z"/>
</g>
<g fill="None" fill-opacity="0.0" stroke="#262017" stroke-opacity="1.00" stroke-width="0.3"><path d="
M 205.00 200.00 
C 205.13 196.14 197.85 196.28 198.00 200.00
C 200.47 199.10 202.58 198.97 205.00 200.00 Z"/>
</g>
<g fill="None" fill-opacity="0.0" stroke="#241F16" stroke-opacity="1.00" stroke-width="0.3"><path d="
M 218.00 199.00 
C 216.65 196.47 210.65 195.92 211.00 200.00
C 213.09 197.54 216.47 200.81 218.00 199.00 Z"/>
</g>
<g fill="None" fill-opacity="0.0" stroke="#E5B261" stroke-opacity="1.00" stroke-width="0.3"><path d="
M 123.00 201.00 
C 123.49 201.58 122.60 203.34 123.00 204.00
C 127.33 204.29 129.61 203.27 133.00 202.00
C 133.17 201.57 132.77 200.35 133.00 200.00
C 130.49 199.40 126.08 201.32 123.00 201.00 Z"/>
</g>
<g fill="None" fill-opacity="0.0" stroke="#711C15" stroke-opacity="1.00" stroke-width="0.3"><path d="
M 417.00 207.00 
C 417.68 204.27 417.69 202.78 417.00 200.00
C 417.25 202.13 417.25 204.87 417.00 207.00 Z"/>
</g>
<g fill="None" fill-opacity="0.0" stroke="#3E3220" stroke-opacity="1.00" stroke-width="0.3"><path d="
M 217.00 205.00 
C 217.65 200.97 210.34 201.00 211.00 205.00
C 213.01 203.06 215.02 202.74 217.00 205.00 Z"/>
</g>
<g fill="None" fill-opacity="0.0" stroke="#EB8880" stroke-opacity="1.00" stroke-width="0.3"><path d="
M 382.00 212.00 
C 382.00 212.03 383.00 212.00 383.00 212.00
C 388.67 212.00 394.33 212.00 400.00 212.00
C 400.50 212.00 401.00 212.00 401.00 212.00
C 399.00 209.92 384.05 209.87 382.00 212.00 Z"/>
</g>
<g fill="None" fill-opacity="0.0" stroke="#F8D9D6" stroke-opacity="1.00" stroke-width="0.3"><path d="
M 401.00 212.00 
C 401.00 212.00 400.50 212.00 400.00 212.00
C 397.24 214.04 385.69 213.99 383.00 212.00
C 383.00 212.00 382.00 212.03 382.00 212.00
C 382.19 215.36 400.81 215.29 401.00 212.00 Z"/>
</g>
<g fill="None" fill-opacity="0.0" stroke="#FEFBFB" stroke-opacity="1.00" stroke-width="0.3"><path d="
M 400.00 212.00 
C 394.33 212.00 388.67 212.00 383.00 212.00
C 385.69 213.99 397.24 214.04 400.00 212.00 Z"/>
</g>
<g fill="None" fill-opacity="0.0" stroke="#3A2E1E" stroke-opacity="1.00" stroke-width="0.3"><path d="
M 212.00 214.00 
C 208.98 215.03 205.45 215.79 203.00 213.00
C 202.84 217.25 210.67 217.17 212.00 214.00 Z"/>
</g>
<g fill="None" fill-opacity="0.0" stroke="#DB3629" stroke-opacity="1.00" stroke-width="0.3"><path d="
M 63.00 215.00 
C 42.24 212.73 38.45 244.22 59.00 247.00 C 79.55 249.78 82.50 217.13 63.00 215.00 Z"/>
</g>
<g fill="None" fill-opacity="0.0" stroke="#6B1A13" stroke-opacity="1.00" stroke-width="0.3"><path d="
M 401.00 222.00 
C 390.89 217.69 375.34 222.41 364.00 221.00
C 375.17 223.77 389.52 218.93 401.00 222.00 Z"/>
</g>
<g fill="None" fill-opacity="0.0" stroke="#547BBD" stroke-opacity="1.00" stroke-width="0.3"><path d="
M 249.00 279.00 
C 249.62 279.00 250.34 278.14 251.00 278.00
C 266.38 274.73 286.94 284.43 292.00 264.00
C 292.29 261.64 292.36 258.35 292.00 256.00
C 288.53 243.75 278.42 242.00 267.00 242.00
C 266.50 242.00 265.50 242.00 265.00 242.00
C 253.39 241.70 240.66 244.43 232.00 236.00
C 232.81 246.97 221.48 253.90 225.01 264.99 C 228.53 276.09 238.53 278.93 249.00 279.00
M 271.00 259.00 
C 271.51 259.45 272.39 260.02 272.00 261.00
C 271.18 263.09 260.32 262.28 258.00 262.00 C 255.68 261.72 245.20 263.97 244.26 260.74 C 243.31 257.51 252.74 257.39 256.00 258.00 C 259.26 258.61 268.26 256.62 271.00 259.00 Z"/>
</g>
<g fill="None" fill-opacity="0.0" stroke="#A2A6AB" stroke-opacity="1.00" stroke-width="0.3"><path d="
M 151.00 252.00 
C 112.31 245.07 99.90 303.04 138.33 311.67 C 176.76 320.30 188.74 258.76 151.00 252.00
M 167.00 298.00 
C 162.01 305.05 157.58 308.10 149.00 310.00
C 145.50 310.78 142.87 310.86 139.00 310.00
C 130.24 308.06 122.66 302.38 119.00 294.00
C 110.35 274.19 125.57 251.43 148.00 254.00 C 170.43 256.57 178.70 281.46 167.00 298.00 Z"/>
</g>
<g fill="None" fill-opacity="0.0" stroke="#000000" stroke-opacity="1.00" stroke-width="0.3"><path d="
M 119.00 294.00 
C 120.06 288.76 124.55 290.78 125.33 283.33 C 126.10 275.88 130.12 265.03 137.25 261.25 C 144.37 257.47 147.27 260.24 152.67 260.33 C 158.07 260.42 159.80 264.07 162.75 267.25 C 165.71 270.42 166.83 276.41 166.00 281.00 C 165.17 285.59 167.59 293.70 167.00 298.00
C 178.70 281.46 170.43 256.57 148.00 254.00 C 125.57 251.43 110.35 274.19 119.00 294.00 Z"/>
</g>
<g fill="None" fill-opacity="0.0" stroke="#293C5C" stroke-opacity="1.00" stroke-width="0.3"><path d="
M 292.00 264.00 
C 292.74 261.03 292.86 259.05 292.00 256.00
C 292.36 258.35 292.29 261.64 292.00 264.00 Z"/>
</g>
<g fill="None" fill-opacity="0.0" stroke="#A3B8D8" stroke-opacity="1.00" stroke-width="0.3"><path d="
M 272.00 261.00 
C 269.76 263.13 261.24 260.07 258.00 261.00 C 254.76 261.93 247.65 261.13 245.00 260.00
C 252.76 257.70 262.49 259.65 271.00 259.00
C 268.26 256.62 259.26 258.61 256.00 258.00 C 252.74 257.39 243.31 257.51 244.26 260.74 C 245.20 263.97 255.68 261.72 258.00 262.00 C 260.32 262.28 271.18 263.09 272.00 261.00 Z"/>
</g>
<g fill="None" fill-opacity="0.0" stroke="#FCFCFD" stroke-opacity="1.00" stroke-width="0.3"><path d="
M 272.00 261.00 
C 272.39 260.02 271.51 259.45 271.00 259.00
C 262.49 259.65 252.76 257.70 245.00 260.00
C 247.65 261.13 254.76 261.93 258.00 261.00 C 261.24 260.07 269.76 263.13 272.00 261.00 Z"/>
</g>
<g fill="None" fill-opacity="0.0" stroke="#F8DB7F" stroke-opacity="1.00" stroke-width="0.3"><path d="
M 119.00 294.00 
C 122.66 302.38 130.24 308.06 139.00 310.00
C 135.65 305.35 142.42 304.10 135.77 300.23 C 129.12 296.36 127.74 286.37 129.93 279.93 C 132.11 273.49 129.14 274.04 133.00 269.00
C 136.60 273.00 140.73 274.89 145.08 278.92 C 149.42 282.96 159.19 281.05 163.67 283.33 C 168.15 285.61 158.80 294.08 157.70 297.70 C 156.59 301.31 142.11 303.17 149.00 310.00
C 157.58 308.10 162.01 305.05 167.00 298.00
C 167.59 293.70 165.17 285.59 166.00 281.00 C 166.83 276.41 165.71 270.42 162.75 267.25 C 159.80 264.07 158.07 260.42 152.67 260.33 C 147.27 260.24 144.37 257.47 137.25 261.25 C 130.12 265.03 126.10 275.88 125.33 283.33 C 124.55 290.78 120.06 288.76 119.00 294.00 Z"/>
</g>
<g fill="None" fill-opacity="0.0" stroke="#A0A4AA" stroke-opacity="1.00" stroke-width="0.3"><path d="
M 410.00 265.00 
C 386.15 261.59 367.48 285.10 376.22 306.78 C 384.97 328.45 412.81 330.49 427.25 314.25 C 441.68 298.01 431.87 268.12 410.00 265.00
M 412.00 322.00 
C 407.24 323.76 403.39 324.50 398.00 323.00
C 380.28 318.06 369.01 296.02 379.92 279.92 C 390.84 263.83 414.25 261.53 426.30 277.70 C 438.36 293.86 430.66 315.11 412.00 322.00 Z"/>
</g>
<g fill="None" fill-opacity="0.0" stroke="#010000" stroke-opacity="1.00" stroke-width="0.3"><path d="
M 398.00 323.00 
C 398.00 321.67 398.00 320.33 398.00 319.00
C 395.89 318.60 393.34 317.62 392.00 316.00
C 382.94 309.20 382.26 299.90 383.00 289.00
C 383.60 280.18 387.99 272.53 397.01 271.01 C 406.02 269.49 413.64 271.11 419.75 278.25 C 425.87 285.38 425.30 295.76 424.07 304.07 C 422.85 312.39 415.75 318.42 412.00 322.00
C 430.66 315.11 438.36 293.86 426.30 277.70 C 414.25 261.53 390.84 263.83 379.92 279.92 C 369.01 296.02 380.28 318.06 398.00 323.00 Z"/>
</g>
<g fill="None" fill-opacity="0.0" stroke="#E2BEA6" stroke-opacity="1.00" stroke-width="0.3"><path d="
M 139.00 310.00 
C 142.87 310.86 145.50 310.78 149.00 310.00
C 142.11 303.17 156.59 301.31 157.70 297.70 C 158.80 294.08 168.15 285.61 163.67 283.33 C 159.19 281.05 149.42 282.96 145.08 278.92 C 140.73 274.89 136.60 273.00 133.00 269.00
C 129.14 274.04 132.11 273.49 129.93 279.93 C 127.74 286.37 129.12 296.36 135.77 300.23 C 142.42 304.10 135.65 305.35 139.00 310.00
M 137.00 283.00 
C 136.09 279.79 132.29 282.15 131.00 281.00
C 132.52 278.04 138.00 279.16 137.00 283.00
M 151.00 284.00 
C 149.74 285.16 147.05 281.36 145.00 284.00
C 144.57 280.90 150.55 281.35 151.00 284.00
M 144.00 292.00 
C 144.01 292.23 143.12 293.80 143.00 294.00
C 140.83 297.48 135.27 296.26 135.00 292.00
C 134.97 291.50 135.00 291.00 135.00 291.00
C 136.01 287.60 143.80 288.76 144.00 292.00 Z"/>
</g>
<g fill="None" fill-opacity="0.0" stroke="#E15A4E" stroke-opacity="1.00" stroke-width="0.3"><path d="
M 383.00 289.00 
C 383.00 288.96 384.00 289.00 384.00 289.00
C 387.20 281.16 407.95 283.55 413.00 288.00
C 417.83 292.25 414.73 303.27 411.23 308.23 C 407.72 313.19 398.36 317.79 392.00 316.00
C 393.34 317.62 395.89 318.60 398.00 319.00
C 398.00 320.33 398.00 321.67 398.00 323.00
C 403.39 324.50 407.24 323.76 412.00 322.00
C 415.75 318.42 422.85 312.39 424.07 304.07 C 425.30 295.76 425.87 285.38 419.75 278.25 C 413.64 271.11 406.02 269.49 397.01 271.01 C 387.99 272.53 383.60 280.18 383.00 289.00 Z"/>
</g>
<g fill="None" fill-opacity="0.0" stroke="#96A2A8" stroke-opacity="1.00" stroke-width="0.3"><path d="
M 249.00 279.00 
C 242.83 286.01 239.95 301.79 236.31 310.31 C 232.66 318.82 223.84 331.87 224.00 341.00
C 224.27 341.17 224.87 341.73 225.00 342.00
C 230.90 336.78 231.12 322.66 235.69 316.69 C 240.27 310.73 238.58 308.65 241.07 304.07 C 243.57 299.49 244.82 294.34 246.08 291.08 C 247.33 287.81 252.56 279.71 251.00 278.00
C 250.34 278.14 249.62 279.00 249.00 279.00 Z"/>
</g>
<g fill="None" fill-opacity="0.0" stroke="#706156" stroke-opacity="1.00" stroke-width="0.3"><path d="
M 137.00 283.00 
C 138.00 279.16 132.52 278.04 131.00 281.00
C 132.29 282.15 136.09 279.79 137.00 283.00 Z"/>
</g>
<g fill="None" fill-opacity="0.0" stroke="#63584F" stroke-opacity="1.00" stroke-width="0.3"><path d="
M 151.00 284.00 
C 150.55 281.35 144.57 280.90 145.00 284.00
C 147.05 281.36 149.74 285.16 151.00 284.00 Z"/>
</g>
<g fill="None" fill-opacity="0.0" stroke="#F2EBEA" stroke-opacity="1.00" stroke-width="0.3"><path d="
M 384.00 289.00 
C 388.25 289.00 395.00 288.10 399.00 289.00 C 403.00 289.90 410.60 287.00 413.00 288.00
C 407.95 283.55 387.20 281.16 384.00 289.00 Z"/>
</g>
<g fill="None" fill-opacity="0.0" stroke="#FAD6BF" stroke-opacity="1.00" stroke-width="0.3"><path d="
M 384.00 289.00 
C 384.00 289.00 383.00 288.96 383.00 289.00
C 382.26 299.90 382.94 309.20 392.00 316.00
C 398.36 317.79 407.72 313.19 411.23 308.23 C 414.73 303.27 417.83 292.25 413.00 288.00
C 410.60 287.00 403.00 289.90 399.00 289.00 C 395.00 288.10 388.25 289.00 384.00 289.00
M 392.00 297.00 
C 389.46 294.01 387.56 294.26 385.00 297.00
C 383.39 291.46 393.31 292.03 392.00 297.00
M 408.00 297.00 
C 405.28 294.79 402.82 294.83 400.00 297.00
C 399.77 291.85 408.22 291.85 408.00 297.00
M 401.00 306.00 
C 399.52 309.23 394.54 308.26 392.00 307.00
C 394.15 305.76 398.15 307.89 401.00 306.00 Z"/>
</g>
<g fill="None" fill-opacity="0.0" stroke="#D9918B" stroke-opacity="1.00" stroke-width="0.3"><path d="
M 135.00 291.00 
C 136.28 290.75 143.31 290.95 144.00 292.00
C 143.80 288.76 136.01 287.60 135.00 291.00 Z"/>
</g>
<g fill="None" fill-opacity="0.0" stroke="#30211D" stroke-opacity="1.00" stroke-width="0.3"><path d="
M 135.00 292.00 
C 136.57 293.39 140.91 294.97 143.00 294.00
C 143.12 293.80 144.01 292.23 144.00 292.00
C 143.31 290.95 136.28 290.75 135.00 291.00
C 135.00 291.00 134.97 291.50 135.00 292.00 Z"/>
</g>
<g fill="None" fill-opacity="0.0" stroke="#E79B95" stroke-opacity="1.00" stroke-width="0.3"><path d="
M 143.00 294.00 
C 140.91 294.97 136.57 293.39 135.00 292.00
C 135.27 296.26 140.83 297.48 143.00 294.00 Z"/>
</g>
<g fill="None" fill-opacity="0.0" stroke="#83756A" stroke-opacity="1.00" stroke-width="0.3"><path d="
M 392.00 297.00 
C 393.31 292.03 383.39 291.46 385.00 297.00
C 387.56 294.26 389.46 294.01 392.00 297.00 Z"/>
</g>
<g fill="None" fill-opacity="0.0" stroke="#827469" stroke-opacity="1.00" stroke-width="0.3"><path d="
M 408.00 297.00 
C 408.22 291.85 399.77 291.85 400.00 297.00
C 402.82 294.83 405.28 294.79 408.00 297.00 Z"/>
</g>
<g fill="None" fill-opacity="0.0" stroke="#EB5C4D" stroke-opacity="1.00" stroke-width="0.3"><path d="
M 401.00 306.00 
C 398.15 307.89 394.15 305.76 392.00 307.00
C 394.54 308.26 399.52 309.23 401.00 306.00 Z"/>
</g>
<g fill="None" fill-opacity="0.0" stroke="#179C57" stroke-opacity="1.00" stroke-width="0.3"><path d="
M 92.00 336.00 
C 92.06 335.51 92.00 334.50 92.00 334.00
C 92.00 328.19 91.43 322.36 88.25 317.75 C 85.07 313.14 80.86 312.73 78.00 309.00
C 78.00 309.00 77.44 309.16 77.00 309.00
C 55.34 301.32 38.65 326.98 49.75 344.25 C 60.86 361.52 89.51 355.63 92.00 336.00 Z"/>
</g>
<g fill="None" fill-opacity="0.0" stroke="#537ABB" stroke-opacity="1.00" stroke-width="0.3"><path d="
M 301.00 308.00 
C 280.38 303.73 273.76 334.33 293.78 339.22 C 313.80 344.11 319.97 311.93 301.00 308.00 Z"/>
</g>
<g fill="None" fill-opacity="0.0" stroke="#97A2A8" stroke-opacity="1.00" stroke-width="0.3"><path d="
M 92.00 336.00 
C 107.96 340.83 127.92 341.23 144.33 343.67 C 160.74 346.12 179.39 352.50 196.00 351.00
C 195.99 350.50 196.00 350.00 196.00 350.00
C 191.35 346.25 181.63 348.04 175.67 346.33 C 169.71 344.62 161.34 344.27 155.00 343.00 C 148.66 341.73 140.32 341.01 134.00 340.00 C 127.68 338.99 119.06 336.88 113.01 336.99 C 106.95 337.11 97.27 331.77 92.00 334.00
C 92.00 334.50 92.06 335.51 92.00 336.00 Z"/>
</g>
<g fill="None" fill-opacity="0.0" stroke="#F7B912" stroke-opacity="1.00" stroke-width="0.3"><path d="
M 196.00 350.00 
C 196.00 350.00 195.99 350.50 196.00 351.00
C 196.26 362.07 206.23 371.43 217.77 367.77 C 229.32 364.11 229.29 350.71 225.00 342.00
C 224.87 341.73 224.27 341.17 224.00 341.00
C 210.94 332.71 202.32 338.44 196.00 350.00 Z"/>
</g>
<g fill="None" fill-opacity="0.0" stroke="#9EA2A7" stroke-opacity="1.00" stroke-width="0.3"><path d="
M 419.00 343.00 
C 380.75 336.15 368.58 395.19 407.00 403.00 C 445.42 410.81 456.77 349.77 419.00 343.00
M 423.00 400.00 
C 422.57 400.17 422.00 400.00 422.00 400.00
C 417.07 401.73 413.05 402.10 408.00 401.00
C 377.46 394.34 377.71 348.80 410.02 345.02 C 442.34 341.25 452.51 388.40 423.00 400.00 Z"/>
</g>
<g fill="None" fill-opacity="0.0" stroke="#000000" stroke-opacity="1.00" stroke-width="0.3"><path d="
M 408.00 401.00 
C 407.76 400.69 408.25 399.21 408.00 399.00
C 402.64 397.28 399.16 393.96 397.00 389.00
C 395.17 384.80 394.65 380.10 395.00 375.00
C 393.64 370.18 389.44 362.00 396.25 358.25 C 403.06 354.49 404.33 349.53 412.01 350.01 C 419.69 350.49 423.06 352.27 428.75 357.25 C 434.45 362.22 429.74 371.26 431.00 377.00
C 431.29 378.31 436.05 381.70 432.69 383.69 C 429.34 385.69 429.20 386.65 428.00 390.00
C 427.79 390.57 427.30 391.50 427.00 392.00
C 425.03 395.23 422.94 395.83 423.00 400.00
C 452.51 388.40 442.34 341.25 410.02 345.02 C 377.71 348.80 377.46 394.34 408.00 401.00 Z"/>
</g>
<g fill="None" fill-opacity="0.0" stroke="#1A9C58" stroke-opacity="1.00" stroke-width="0.3"><path d="
M 316.00 350.00 
C 313.80 351.10 315.95 354.45 314.00 356.00
C 298.19 355.16 286.96 374.92 297.23 387.77 C 307.50 400.62 329.19 397.65 344.93 396.93 C 360.67 396.20 370.28 376.29 359.75 363.25 C 349.22 350.20 326.72 362.19 316.00 350.00
M 317.00 375.00 
C 316.97 379.56 325.91 381.31 323.00 386.00
C 318.86 383.29 316.10 378.65 312.00 376.00
C 315.74 373.95 316.66 367.41 321.25 366.25 C 325.84 365.09 320.49 374.89 317.00 375.00
M 346.00 375.00 
C 343.25 378.34 342.12 383.04 337.25 385.25 C 332.37 387.45 336.79 377.48 341.00 377.00
C 341.63 374.64 331.27 367.76 335.26 366.25 C 339.25 364.75 342.30 374.72 346.00 375.00 Z"/>
</g>
<g fill="None" fill-opacity="0.0" stroke="#25282A" stroke-opacity="1.00" stroke-width="0.3"><path d="
M 395.00 375.00 
C 396.20 357.43 405.42 371.20 415.00 371.00
C 414.67 371.11 417.69 369.99 417.00 370.00
C 413.65 367.49 409.16 365.90 407.00 362.00
C 412.82 359.41 416.51 369.04 423.00 368.00
C 423.45 372.30 421.96 377.12 424.00 381.00
C 424.22 381.38 424.00 382.00 424.00 382.00
C 426.37 383.94 425.78 380.29 427.00 379.00
C 428.28 377.65 428.68 376.57 431.00 377.00
C 429.74 371.26 434.45 362.22 428.75 357.25 C 423.06 352.27 419.69 350.49 412.01 350.01 C 404.33 349.53 403.06 354.49 396.25 358.25 C 389.44 362.00 393.64 370.18 395.00 375.00 Z"/>
</g>
<g fill="None" fill-opacity="0.0" stroke="#CB9F63" stroke-opacity="1.00" stroke-width="0.3"><path d="
M 417.00 370.00 
C 418.01 370.76 419.57 370.68 420.00 372.00
C 415.83 371.74 416.68 372.20 418.00 375.00
C 415.49 374.20 412.81 373.72 410.00 374.00
C 410.43 371.06 414.09 373.08 415.00 371.00
C 405.42 371.20 396.20 357.43 395.00 375.00
C 394.65 380.10 395.17 384.80 397.00 389.00
C 402.36 387.61 407.53 381.14 413.74 386.26 C 419.95 391.37 423.98 389.24 424.00 381.00
C 421.96 377.12 423.45 372.30 423.00 368.00
C 416.51 369.04 412.82 359.41 407.00 362.00
C 409.16 365.90 413.65 367.49 417.00 370.00
M 405.00 374.00 
C 402.25 372.91 398.77 375.78 397.00 374.00
C 398.58 371.76 403.79 370.67 405.00 374.00
M 404.00 378.00 
C 403.15 378.39 399.79 378.74 399.00 378.00
C 400.03 376.08 402.99 375.89 404.00 378.00
M 417.00 379.00 
C 414.96 377.38 412.42 379.70 411.00 378.00
C 412.72 376.56 416.29 376.40 417.00 379.00 Z"/>
</g>
<g fill="None" fill-opacity="0.0" stroke="#F2F9F4" stroke-opacity="1.00" stroke-width="0.3"><path d="
M 317.00 375.00 
C 320.49 374.89 325.84 365.09 321.25 366.25 C 316.66 367.41 315.74 373.95 312.00 376.00
C 316.10 378.65 318.86 383.29 323.00 386.00
C 325.91 381.31 316.97 379.56 317.00 375.00 Z"/>
</g>
<g fill="None" fill-opacity="0.0" stroke="#E8F4EE" stroke-opacity="1.00" stroke-width="0.3"><path d="
M 346.00 375.00 
C 342.30 374.72 339.25 364.75 335.26 366.25 C 331.27 367.76 341.63 374.64 341.00 377.00
C 336.79 377.48 332.37 387.45 337.25 385.25 C 342.12 383.04 343.25 378.34 346.00 375.00 Z"/>
</g>
<g fill="None" fill-opacity="0.0" stroke="#524739" stroke-opacity="1.00" stroke-width="0.3"><path d="
M 415.00 371.00 
C 414.09 373.08 410.43 371.06 410.00 374.00
C 412.81 373.72 415.49 374.20 418.00 375.00
C 416.68 372.20 415.83 371.74 420.00 372.00
C 419.57 370.68 418.01 370.76 417.00 370.00
C 417.69 369.99 414.67 371.11 415.00 371.00 Z"/>
</g>
<g fill="None" fill-opacity="0.0" stroke="#453E34" stroke-opacity="1.00" stroke-width="0.3"><path d="
M 405.00 374.00 
C 403.79 370.67 398.58 371.76 397.00 374.00
C 398.77 375.78 402.25 372.91 405.00 374.00 Z"/>
</g>
<g fill="None" fill-opacity="0.0" stroke="#63543D" stroke-opacity="1.00" stroke-width="0.3"><path d="
M 404.00 378.00 
C 402.99 375.89 400.03 376.08 399.00 378.00
C 399.79 378.74 403.15 378.39 404.00 378.00 Z"/>
</g>
<g fill="None" fill-opacity="0.0" stroke="#67563F" stroke-opacity="1.00" stroke-width="0.3"><path d="
M 417.00 379.00 
C 416.29 376.40 412.72 376.56 411.00 378.00
C 412.42 379.70 414.96 377.38 417.00 379.00 Z"/>
</g>
<g fill="None" fill-opacity="0.0" stroke="#C69B60" stroke-opacity="1.00" stroke-width="0.3"><path d="
M 427.00 379.00 
C 426.55 380.27 426.98 382.64 427.00 384.00
C 427.03 385.72 428.04 389.12 428.00 390.00
C 429.20 386.65 429.34 385.69 432.69 383.69 C 436.05 381.70 431.29 378.31 431.00 377.00
C 428.68 376.57 428.28 377.65 427.00 379.00 Z"/>
</g>
<g fill="None" fill-opacity="0.0" stroke="#665540" stroke-opacity="1.00" stroke-width="0.3"><path d="
M 424.00 382.00 
C 424.27 383.99 426.46 383.17 427.00 384.00
C 426.98 382.64 426.55 380.27 427.00 379.00
C 425.78 380.29 426.37 383.94 424.00 382.00 Z"/>
</g>
<g fill="None" fill-opacity="0.0" stroke="#B68A67" stroke-opacity="1.00" stroke-width="0.3"><path d="
M 397.00 389.00 
C 399.16 393.96 402.64 397.28 408.00 399.00
C 412.38 400.40 418.05 399.71 422.00 397.00
C 422.57 394.74 425.64 393.46 427.00 392.00
C 427.30 391.50 427.79 390.57 428.00 390.00
C 428.04 389.12 427.03 385.72 427.00 384.00
C 426.46 383.17 424.27 383.99 424.00 382.00
C 424.00 382.00 424.22 381.38 424.00 381.00
C 423.98 389.24 419.95 391.37 413.74 386.26 C 407.53 381.14 402.36 387.61 397.00 389.00
M 412.00 390.00 
C 411.95 389.98 411.35 390.95 411.00 391.00
C 409.95 394.89 403.18 395.54 402.00 391.00
C 401.88 390.53 402.00 390.00 402.00 390.00
C 403.38 388.58 410.86 387.97 412.00 390.00 Z"/>
</g>
<g fill="None" fill-opacity="0.0" stroke="#DAC5B6" stroke-opacity="1.00" stroke-width="0.3"><path d="
M 402.00 390.00 
C 404.62 389.76 409.52 389.20 412.00 390.00
C 410.86 387.97 403.38 388.58 402.00 390.00 Z"/>
</g>
<g fill="None" fill-opacity="0.0" stroke="#9A9B9D" stroke-opacity="1.00" stroke-width="0.3"><path d="
M 402.00 391.00 
C 404.74 391.25 408.27 391.39 411.00 391.00
C 411.35 390.95 411.95 389.98 412.00 390.00
C 409.52 389.20 404.62 389.76 402.00 390.00
C 402.00 390.00 401.88 390.53 402.00 391.00 Z"/>
</g>
<g fill="None" fill-opacity="0.0" stroke="#2C2D2D" stroke-opacity="1.00" stroke-width="0.3"><path d="
M 411.00 391.00 
C 408.27 391.39 404.74 391.25 402.00 391.00
C 403.18 395.54 409.95 394.89 411.00 391.00 Z"/>
</g>
<g fill="None" fill-opacity="0.0" stroke="#4D3F30" stroke-opacity="1.00" stroke-width="0.3"><path d="
M 422.00 397.00 
C 421.93 397.28 421.82 399.83 422.00 400.00
C 422.00 400.00 422.57 400.17 423.00 400.00
C 422.94 395.83 425.03 395.23 427.00 392.00
C 425.64 393.46 422.57 394.74 422.00 397.00 Z"/>
</g>
<g fill="None" fill-opacity="0.0" stroke="#CDA570" stroke-opacity="1.00" stroke-width="0.3"><path d="
M 408.00 399.00 
C 408.25 399.21 407.76 400.69 408.00 401.00
C 413.05 402.10 417.07 401.73 422.00 400.00
C 421.82 399.83 421.93 397.28 422.00 397.00
C 418.05 399.71 412.38 400.40 408.00 399.00 Z"/>
</g>
<g fill="#000000" fill-opacity="1.00" stroke="None">
<path d="
M 0.00 480.00 
L 480.00 480.00
L 480.00 0.00
L 0.00 0.00
L 0.00 480.00
M 184.00 61.00 
C 205.60 64.51 216.79 92.43 202.75 109.75 C 188.70 127.06 161.51 125.23 151.70 104.30 C 141.88 83.38 159.52 57.02 184.00 61.00
M 98.00 72.00 
C 117.25 76.77 107.73 109.33 88.33 102.67 C 68.93 96.01 77.23 66.86 98.00 72.00
M 289.00 88.00 
C 298.05 85.10 309.41 89.23 319.00 88.00 C 328.59 86.77 339.16 88.38 349.00 88.00 C 358.84 87.62 369.01 87.78 379.00 88.00 C 388.99 88.22 399.99 87.10 410.00 88.00
C 413.82 78.75 425.44 72.99 431.92 84.08 C 438.39 95.17 423.35 105.82 414.00 99.00
C 407.89 99.48 402.54 108.42 396.77 110.77 C 391.00 113.12 386.20 120.98 380.00 123.00
C 399.30 148.10 370.18 181.80 342.92 169.08 C 315.67 156.35 322.62 114.51 352.00 112.00
C 354.56 111.58 356.49 111.59 359.00 112.00
C 366.41 112.37 373.63 115.70 378.00 122.00
C 389.50 113.97 401.46 106.04 412.00 97.00
C 410.92 95.52 410.04 91.91 410.00 90.00
C 390.36 91.77 369.73 90.00 350.00 90.00 C 330.27 90.00 309.63 91.77 290.00 90.00
C 292.02 102.32 286.73 117.84 273.00 121.00
C 277.00 126.50 273.86 140.65 277.78 146.22 C 281.70 151.80 277.24 167.18 284.00 170.00
C 285.55 167.54 289.44 169.65 291.00 170.00
C 304.10 172.90 313.76 185.86 309.67 199.67 C 305.58 213.48 290.08 219.13 278.00 214.00
C 274.65 223.47 269.61 232.34 267.00 242.00
C 278.42 242.00 288.53 243.75 292.00 256.00
C 292.86 259.05 292.74 261.03 292.00 264.00
C 286.94 284.43 266.38 274.73 251.00 278.00
C 252.56 279.71 247.33 287.81 246.08 291.08 C 244.82 294.34 243.57 299.49 241.07 304.07 C 238.58 308.65 240.27 310.73 235.69 316.69 C 231.12 322.66 230.90 336.78 225.00 342.00
C 229.29 350.71 229.32 364.11 217.77 367.77 C 206.23 371.43 196.26 362.07 196.00 351.00
C 179.39 352.50 160.74 346.12 144.33 343.67 C 127.92 341.23 107.96 340.83 92.00 336.00
C 89.51 355.63 60.86 361.52 49.75 344.25 C 38.65 326.98 55.34 301.32 77.00 309.00
C 77.89 297.01 86.74 286.45 89.78 274.78 C 92.81 263.11 99.05 251.50 102.92 239.92 C 106.80 228.35 112.25 216.68 116.00 205.00
C 105.75 201.43 98.23 194.76 95.07 183.93 C 91.91 173.10 96.00 160.33 104.75 152.75 C 113.50 145.18 126.67 143.59 136.69 148.31 C 146.72 153.02 153.29 161.37 154.78 172.22 C 156.27 183.07 150.38 194.96 140.92 200.92 C 131.46 206.88 115.80 203.90 113.69 216.69 C 111.59 229.49 105.06 235.60 102.07 247.07 C 99.08 258.55 93.95 267.42 90.22 278.22 C 86.50 289.03 82.77 299.06 78.00 309.00
C 80.86 312.73 85.07 313.14 88.25 317.75 C 91.43 322.36 92.00 328.19 92.00 334.00
C 97.27 331.77 106.95 337.11 113.01 336.99 C 119.06 336.88 127.68 338.99 134.00 340.00 C 140.32 341.01 148.66 341.73 155.00 343.00 C 161.34 344.27 169.71 344.62 175.67 346.33 C 181.63 348.04 191.35 346.25 196.00 350.00
C 202.32 338.44 210.94 332.71 224.00 341.00
C 223.84 331.87 232.66 318.82 236.31 310.31 C 239.95 301.79 242.83 286.01 249.00 279.00
C 238.53 278.93 228.53 276.09 225.01 264.99 C 221.48 253.90 232.81 246.97 232.00 236.00
C 240.66 244.43 253.39 241.70 265.00 242.00
C 263.26 237.85 270.01 231.71 270.32 227.32 C 270.64 222.94 276.07 217.77 276.00 213.00
C 268.49 209.24 264.07 201.35 264.00 193.00 C 263.94 184.65 267.83 177.09 275.70 172.70 C 283.57 168.30 277.44 157.05 276.22 148.78 C 275.00 140.50 272.26 129.53 271.00 121.00
C 252.22 122.23 237.15 102.23 247.31 85.31 C 257.46 68.38 280.60 71.78 289.00 88.00
M 217.00 169.00 
C 239.16 171.73 251.58 199.05 238.25 217.25 C 224.91 235.44 197.47 233.30 186.70 213.30 C 175.92 193.31 193.48 166.10 217.00 169.00
M 417.00 200.00 
C 417.69 202.78 417.68 204.27 417.00 207.00
C 415.14 214.49 408.67 219.65 409.00 228.00
C 406.27 226.01 403.71 223.95 401.00 222.00
C 389.52 218.93 375.17 223.77 364.00 221.00
C 352.59 218.17 343.55 206.59 351.31 194.31 C 359.06 182.02 374.11 187.14 387.00 186.00 C 399.89 184.86 413.42 185.55 417.00 200.00
M 63.00 215.00 
C 82.50 217.13 79.55 249.78 59.00 247.00 C 38.45 244.22 42.24 212.73 63.00 215.00
M 151.00 252.00 
C 188.74 258.76 176.76 320.30 138.33 311.67 C 99.90 303.04 112.31 245.07 151.00 252.00
M 410.00 265.00 
C 431.87 268.12 441.68 298.01 427.25 314.25 C 412.81 330.49 384.97 328.45 376.22 306.78 C 367.48 285.10 386.15 261.59 410.00 265.00
M 301.00 308.00 
C 319.97 311.93 313.80 344.11 293.78 339.22 C 273.76 334.33 280.38 303.73 301.00 308.00
M 419.00 343.00 
C 456.77 349.77 445.42 410.81 407.00 403.00 C 368.58 395.19 380.75 336.15 419.00 343.00
M 316.00 350.00 
C 326.72 362.19 349.22 350.20 359.75 363.25 C 370.28 376.29 360.67 396.20 344.93 396.93 C 329.19 397.65 307.50 400.62 297.23 387.77 C 286.96 374.92 298.19 355.16 314.00 356.00
C 315.95 354.45 313.80 351.10 316.00 350.00 Z"/>
</g>
<g fill="#9FA4A9" fill-opacity="1.00" stroke="None">
<path d="
M 184.00 61.00 
C 159.52 57.02 141.88 83.38 151.70 104.30 C 161.51 125.23 188.70 127.06 202.75 109.75 C 216.79 92.43 205.60 64.51 184.00 61.00
M 184.00 119.00 
C 180.71 119.81 178.18 119.57 175.00 119.00
C 155.21 115.45 143.96 93.82 154.75 76.75 C 165.55 59.68 189.09 57.32 201.75 74.25 C 214.41 91.17 203.54 114.16 184.00 119.00 Z"/>
</g>
<g fill="#030303" fill-opacity="1.00" stroke="None">
<path d="
M 175.00 119.00 
C 171.33 116.27 164.75 108.52 164.02 102.98 C 163.30 97.43 163.96 95.76 167.00 92.00
C 169.48 94.15 173.49 94.40 175.00 91.00
C 178.53 93.32 181.93 94.46 186.00 93.00
C 187.64 100.04 197.58 92.49 196.00 101.00
C 191.86 102.23 193.02 107.36 190.25 110.25 C 187.47 113.13 183.50 114.82 184.00 119.00
C 203.54 114.16 214.41 91.17 201.75 74.25 C 189.09 57.32 165.55 59.68 154.75 76.75 C 143.96 93.82 155.21 115.45 175.00 119.00 Z"/>
</g>
<g fill="#179A57" fill-opacity="1.00" stroke="None">
<path d="
M 98.00 72.00 
C 77.23 66.86 68.93 96.01 88.33 102.67 C 107.73 109.33 117.25 76.77 98.00 72.00 Z"/>
</g>
<g fill="#547BBC" fill-opacity="1.00" stroke="None">
<path d="
M 271.00 121.00 
C 270.87 121.01 272.82 121.04 273.00 121.00
C 286.73 117.84 292.02 102.32 290.00 90.00
C 289.92 89.51 290.00 89.00 290.00 89.00
C 289.88 88.74 289.17 88.33 289.00 88.00
C 280.60 71.78 257.46 68.38 247.31 85.31 C 237.15 102.23 252.22 122.23 271.00 121.00 Z"/>
</g>
<g fill="#F4B712" fill-opacity="1.00" stroke="None">
<path d="
M 410.00 88.00 
C 409.82 88.43 410.00 89.00 410.00 89.00
C 410.00 89.50 410.00 90.00 410.00 90.00
C 410.04 91.91 410.92 95.52 412.00 97.00
C 412.15 97.21 413.85 98.89 414.00 99.00
C 423.35 105.82 438.39 95.17 431.92 84.08 C 425.44 72.99 413.82 78.75 410.00 88.00 Z"/>
</g>
<g fill="#636A6E" fill-opacity="1.00" stroke="None">
<path d="
M 290.00 89.00 
C 309.29 91.78 330.47 88.62 350.00 89.00 C 369.53 89.38 390.53 90.76 410.00 89.00
C 410.00 89.00 409.82 88.43 410.00 88.00
C 399.99 87.10 388.99 88.22 379.00 88.00 C 369.01 87.78 358.84 87.62 349.00 88.00 C 339.16 88.38 328.59 86.77 319.00 88.00 C 309.41 89.23 298.05 85.10 289.00 88.00
C 289.17 88.33 289.88 88.74 290.00 89.00 Z"/>
</g>
<g fill="#ABB9C0" fill-opacity="1.00" stroke="None">
<path d="
M 290.00 90.00 
C 309.63 91.77 330.27 90.00 350.00 90.00 C 369.73 90.00 390.36 91.77 410.00 90.00
C 410.00 90.00 410.00 89.50 410.00 89.00
C 390.53 90.76 369.53 89.38 350.00 89.00 C 330.47 88.62 309.29 91.78 290.00 89.00
C 290.00 89.00 289.92 89.51 290.00 90.00 Z"/>
</g>
<g fill="#CEA164" fill-opacity="1.00" stroke="None">
<path d="
M 175.00 119.00 
C 178.18 119.57 180.71 119.81 184.00 119.00
C 183.50 114.82 187.47 113.13 190.25 110.25 C 193.02 107.36 191.86 102.23 196.00 101.00
C 197.58 92.49 187.64 100.04 186.00 93.00
C 181.93 94.46 178.53 93.32 175.00 91.00
C 173.49 94.40 169.48 94.15 167.00 92.00
C 163.96 95.76 163.30 97.43 164.02 102.98 C 164.75 108.52 171.33 116.27 175.00 119.00
M 171.00 98.00 
C 169.79 99.02 166.13 98.32 165.00 98.00
C 166.54 95.48 169.17 96.20 171.00 98.00
M 182.00 98.00 
C 176.99 100.34 176.21 95.05 182.00 98.00
M 177.00 105.00 
C 177.23 105.34 177.14 106.55 177.00 107.00
C 176.14 109.70 171.22 109.81 170.25 106.75 C 169.28 103.69 175.62 102.99 177.00 105.00 Z"/>
</g>
<g fill="#866D4A" fill-opacity="1.00" stroke="None">
<path d="
M 171.00 98.00 
C 169.17 96.20 166.54 95.48 165.00 98.00
C 166.13 98.32 169.79 99.02 171.00 98.00 Z"/>
</g>
<g fill="#705D42" fill-opacity="1.00" stroke="None">
<path d="
M 182.00 98.00 
C 176.21 95.05 176.99 100.34 182.00 98.00 Z"/>
</g>
<g fill="#9CA2A7" fill-opacity="1.00" stroke="None">
<path d="
M 359.00 112.00 
C 356.71 111.89 354.29 111.89 352.00 112.00
C 322.62 114.51 315.67 156.35 342.92 169.08 C 370.18 181.80 399.30 148.10 380.00 123.00
C 386.20 120.98 391.00 113.12 396.77 110.77 C 402.54 108.42 407.89 99.48 414.00 99.00
C 413.85 98.89 412.15 97.21 412.00 97.00
C 401.46 106.04 389.50 113.97 378.00 122.00
C 373.63 115.70 366.41 112.37 359.00 112.00
M 376.00 161.00 
C 371.65 165.35 367.98 167.54 362.00 169.00
C 357.85 170.01 354.70 169.60 351.00 169.00
C 344.56 167.95 341.60 166.60 337.00 162.00
C 331.72 156.72 329.51 153.29 328.00 146.00
C 327.32 142.74 327.29 140.22 328.00 137.00
C 332.10 118.50 351.44 107.86 368.69 116.31 C 385.94 124.75 388.75 148.25 376.00 161.00 Z"/>
</g>
<g fill="#D7522F" fill-opacity="1.00" stroke="None">
<path d="
M 177.00 107.00 
C 175.45 107.84 172.66 106.37 171.00 107.00
C 170.65 103.77 175.11 105.43 177.00 105.00
C 175.62 102.99 169.28 103.69 170.25 106.75 C 171.22 109.81 176.14 109.70 177.00 107.00 Z"/>
</g>
<g fill="#40120A" fill-opacity="1.00" stroke="None">
<path d="
M 177.00 107.00 
C 177.14 106.55 177.23 105.34 177.00 105.00
C 175.11 105.43 170.65 103.77 171.00 107.00
C 172.66 106.37 175.45 107.84 177.00 107.00 Z"/>
</g>
<g fill="#4E5053" fill-opacity="1.00" stroke="None">
<path d="
M 352.00 112.00 
C 354.29 111.89 356.71 111.89 359.00 112.00
C 356.49 111.59 354.56 111.58 352.00 112.00 Z"/>
</g>
<g fill="#000000" fill-opacity="1.00" stroke="None">
<path d="
M 328.00 137.00 
C 327.71 139.81 327.74 143.18 328.00 146.00
C 329.51 153.29 331.72 156.72 337.00 162.00
C 336.40 159.33 339.11 155.08 339.00 153.00
C 338.44 151.48 338.18 150.70 338.00 149.00
C 336.99 144.72 336.88 140.60 338.00 136.00
C 340.32 126.51 346.64 119.03 357.67 120.33 C 368.70 121.63 371.73 130.87 374.00 140.00
C 375.30 145.22 375.11 143.01 373.00 147.00
C 372.17 150.71 376.52 158.02 376.00 161.00
C 388.75 148.25 385.94 124.75 368.69 116.31 C 351.44 107.86 332.10 118.50 328.00 137.00 Z"/>
</g>
<g fill="#ACBAC1" fill-opacity="1.00" stroke="None">
<path d="
M 271.00 121.00 
C 272.26 129.53 275.00 140.50 276.22 148.78 C 277.44 157.05 283.57 168.30 275.70 172.70 C 267.83 177.09 263.94 184.65 264.00 193.00 C 264.07 201.35 268.49 209.24 276.00 213.00
C 276.07 217.77 270.64 222.94 270.32 227.32 C 270.01 231.71 263.26 237.85 265.00 242.00
C 265.50 242.00 266.50 242.00 267.00 242.00
C 269.61 232.34 274.65 223.47 278.00 214.00
C 290.08 219.13 305.58 213.48 309.67 199.67 C 313.76 185.86 304.10 172.90 291.00 170.00
C 289.02 169.81 285.81 170.75 284.00 170.00
C 277.24 167.18 281.70 151.80 277.78 146.22 C 273.86 140.65 277.00 126.50 273.00 121.00
C 272.82 121.04 270.87 121.01 271.00 121.00 Z"/>
</g>
<g fill="#25282A" fill-opacity="1.00" stroke="None">
<path d="
M 338.00 136.00 
C 338.04 136.22 338.77 136.95 339.00 137.00
C 345.70 138.49 352.56 136.31 358.00 133.00
C 358.98 137.47 362.39 142.67 367.00 144.00
C 362.36 138.02 370.48 141.97 374.00 140.00
C 371.73 130.87 368.70 121.63 357.67 120.33 C 346.64 119.03 340.32 126.51 338.00 136.00 Z"/>
</g>
<g fill="#E5B85F" fill-opacity="1.00" stroke="None">
<path d="
M 339.00 137.00 
C 337.99 140.37 337.57 144.95 338.00 149.00
C 338.18 150.70 338.44 151.48 339.00 153.00
C 340.43 156.87 343.14 161.39 347.70 162.30 C 352.25 163.22 349.14 167.01 351.00 169.00
C 354.70 169.60 357.85 170.01 362.00 169.00
C 363.13 167.53 361.15 163.68 362.00 162.00
C 369.13 160.87 371.74 152.51 373.00 147.00
C 375.11 143.01 375.30 145.22 374.00 140.00
C 370.48 141.97 362.36 138.02 367.00 144.00
C 362.39 142.67 358.98 137.47 358.00 133.00
C 352.56 136.31 345.70 138.49 339.00 137.00
M 345.00 143.00 
C 343.31 140.70 340.09 143.43 339.00 142.00
C 340.09 140.53 345.40 139.95 345.00 143.00
M 359.00 143.00 
C 356.84 141.18 354.27 141.99 353.00 144.00
C 351.29 140.19 359.36 139.56 359.00 143.00
M 353.00 152.00 
C 351.64 155.54 347.52 153.50 345.00 153.00
C 347.08 151.07 350.32 153.99 353.00 152.00 Z"/>
</g>
<g fill="#5C4A27" fill-opacity="1.00" stroke="None">
<path d="
M 338.00 149.00 
C 337.57 144.95 337.99 140.37 339.00 137.00
C 338.77 136.95 338.04 136.22 338.00 136.00
C 336.88 140.60 336.99 144.72 338.00 149.00 Z"/>
</g>
<g fill="#525557" fill-opacity="1.00" stroke="None">
<path d="
M 328.00 146.00 
C 327.74 143.18 327.71 139.81 328.00 137.00
C 327.29 140.22 327.32 142.74 328.00 146.00 Z"/>
</g>
<g fill="#75633F" fill-opacity="1.00" stroke="None">
<path d="
M 345.00 143.00 
C 345.40 139.95 340.09 140.53 339.00 142.00
C 340.09 143.43 343.31 140.70 345.00 143.00 Z"/>
</g>
<g fill="#6F5E3E" fill-opacity="1.00" stroke="None">
<path d="
M 359.00 143.00 
C 359.36 139.56 351.29 140.19 353.00 144.00
C 354.27 141.99 356.84 141.18 359.00 143.00 Z"/>
</g>
<g fill="#9BA2A7" fill-opacity="1.00" stroke="None">
<path d="
M 77.00 309.00 
C 77.44 309.16 78.00 309.00 78.00 309.00
C 82.77 299.06 86.50 289.03 90.22 278.22 C 93.95 267.42 99.08 258.55 102.07 247.07 C 105.06 235.60 111.59 229.49 113.69 216.69 C 115.80 203.90 131.46 206.88 140.92 200.92 C 150.38 194.96 156.27 183.07 154.78 172.22 C 153.29 161.37 146.72 153.02 136.69 148.31 C 126.67 143.59 113.50 145.18 104.75 152.75 C 96.00 160.33 91.91 173.10 95.07 183.93 C 98.23 194.76 105.75 201.43 116.00 205.00
C 112.25 216.68 106.80 228.35 102.92 239.92 C 99.05 251.50 92.81 263.11 89.78 274.78 C 86.74 286.45 77.89 297.01 77.00 309.00
M 152.00 171.00 
C 152.72 174.26 152.57 176.83 152.00 180.00
C 151.21 191.61 142.91 198.30 133.00 202.00
C 129.61 203.27 127.33 204.29 123.00 204.00
C 99.48 202.40 87.30 174.48 103.75 156.75 C 120.21 139.02 147.02 148.54 152.00 171.00 Z"/>
</g>
<g fill="#000000" fill-opacity="1.00" stroke="None">
<path d="
M 123.00 204.00 
C 122.60 203.34 123.49 201.58 123.00 201.00
C 116.27 200.31 112.64 196.78 110.00 191.00
C 108.88 188.54 106.79 184.14 108.00 181.00 C 109.21 177.86 106.07 171.12 109.00 169.00
C 102.82 168.23 99.56 162.67 105.00 158.00
C 113.56 160.48 121.97 155.73 130.22 158.78 C 138.48 161.82 143.20 168.80 142.00 178.00
C 152.19 177.74 139.88 192.71 138.00 195.00
C 136.55 196.76 134.07 198.36 133.00 200.00
C 132.77 200.35 133.17 201.57 133.00 202.00
C 142.91 198.30 151.21 191.61 152.00 180.00
C 152.19 177.14 152.29 173.85 152.00 171.00
C 147.02 148.54 120.21 139.02 103.75 156.75 C 87.30 174.48 99.48 202.40 123.00 204.00 Z"/>
</g>
<g fill="#252627" fill-opacity="1.00" stroke="None">
<path d="
M 362.00 169.00 
C 367.98 167.54 371.65 165.35 376.00 161.00
C 376.52 158.02 372.17 150.71 373.00 147.00
C 371.74 152.51 369.13 160.87 362.00 162.00
C 361.15 163.68 363.13 167.53 362.00 169.00 Z"/>
</g>
<g fill="#EA6841" fill-opacity="1.00" stroke="None">
<path d="
M 353.00 152.00 
C 350.32 153.99 347.08 151.07 345.00 153.00
C 347.52 153.50 351.64 155.54 353.00 152.00 Z"/>
</g>
<g fill="#242626" fill-opacity="1.00" stroke="None">
<path d="
M 337.00 162.00 
C 341.60 166.60 344.56 167.95 351.00 169.00
C 349.14 167.01 352.25 163.22 347.70 162.30 C 343.14 161.39 340.43 156.87 339.00 153.00
C 339.11 155.08 336.40 159.33 337.00 162.00 Z"/>
</g>
<g fill="#E94524" fill-opacity="1.00" stroke="None">
<path d="
M 109.00 169.00 
C 117.54 170.06 126.43 168.21 135.00 169.00
C 134.40 176.60 136.25 184.84 134.00 192.00
C 126.50 188.02 117.75 186.75 110.00 191.00
C 112.64 196.78 116.27 200.31 123.00 201.00
C 126.08 201.32 130.49 199.40 133.00 200.00
C 134.07 198.36 136.55 196.76 138.00 195.00
C 139.15 191.14 135.06 178.18 142.00 178.00
C 143.20 168.80 138.48 161.82 130.22 158.78 C 121.97 155.73 113.56 160.48 105.00 158.00
C 99.56 162.67 102.82 168.23 109.00 169.00
M 125.00 191.00 
C 125.25 191.26 125.00 192.00 125.00 192.00
C 123.77 196.71 118.27 195.05 117.00 192.00
C 116.65 191.95 115.90 191.19 116.00 191.00
C 117.13 188.98 123.71 189.67 125.00 191.00 Z"/>
</g>
<g fill="#E9B65D" fill-opacity="1.00" stroke="None">
<path d="
M 110.00 191.00 
C 117.75 186.75 126.50 188.02 134.00 192.00
C 136.25 184.84 134.40 176.60 135.00 169.00
C 126.43 168.21 117.54 170.06 109.00 169.00
C 106.07 171.12 109.21 177.86 108.00 181.00 C 106.79 184.14 108.88 188.54 110.00 191.00
M 118.00 175.00 
C 116.17 177.22 112.20 174.89 110.00 177.00
C 108.99 172.51 115.69 173.69 118.00 175.00
M 131.00 176.00 
C 128.37 177.29 126.10 174.40 123.00 176.00
C 122.99 172.81 130.14 173.10 131.00 176.00
M 117.00 181.00 
C 115.02 178.74 113.01 179.06 111.00 181.00
C 110.34 177.00 117.65 176.97 117.00 181.00
M 129.00 181.00 
C 127.17 179.00 125.87 179.35 124.00 181.00
C 123.29 177.21 129.70 177.18 129.00 181.00 Z"/>
</g>
<g fill="#9EA3A8" fill-opacity="1.00" stroke="None">
<path d="
M 217.00 169.00 
C 193.48 166.10 175.92 193.31 186.70 213.30 C 197.47 233.30 224.91 235.44 238.25 217.25 C 251.58 199.05 239.16 171.73 217.00 169.00
M 223.00 226.00 
C 217.85 227.85 213.31 228.10 208.00 227.00
C 195.53 224.42 188.53 216.24 186.00 204.00
C 185.32 200.74 185.29 198.22 186.00 195.00
C 190.59 174.30 214.96 163.38 232.23 177.77 C 249.50 192.16 242.42 219.01 223.00 226.00 Z"/>
</g>
<g fill="#5F676A" fill-opacity="1.00" stroke="None">
<path d="
M 284.00 170.00 
C 285.81 170.75 289.02 169.81 291.00 170.00
C 289.44 169.65 285.55 167.54 284.00 170.00 Z"/>
</g>
<g fill="#4C4E51" fill-opacity="1.00" stroke="None">
<path d="
M 152.00 180.00 
C 152.57 176.83 152.72 174.26 152.00 171.00
C 152.29 173.85 152.19 177.14 152.00 180.00 Z"/>
</g>
<g fill="#010101" fill-opacity="1.00" stroke="None">
<path d="
M 186.00 195.00 
C 185.71 197.81 185.74 201.18 186.00 204.00
C 188.53 216.24 195.53 224.42 208.00 227.00
C 203.17 223.85 197.66 216.70 196.00 210.00
C 194.94 205.70 195.06 201.22 196.00 197.00
C 198.64 185.06 204.22 195.58 213.22 191.22 C 222.23 186.87 221.13 202.66 224.00 207.00
C 227.45 196.99 236.47 205.15 230.92 209.92 C 225.37 214.69 223.88 220.55 223.00 226.00
C 242.42 219.01 249.50 192.16 232.23 177.77 C 214.96 163.38 190.59 174.30 186.00 195.00 Z"/>
</g>
<g fill="#EB633F" fill-opacity="1.00" stroke="None">
<path d="
M 118.00 175.00 
C 115.69 173.69 108.99 172.51 110.00 177.00
C 112.20 174.89 116.17 177.22 118.00 175.00 Z"/>
</g>
<g fill="#EB5F3D" fill-opacity="1.00" stroke="None">
<path d="
M 131.00 176.00 
C 130.14 173.10 122.99 172.81 123.00 176.00
C 126.10 174.40 128.37 177.29 131.00 176.00 Z"/>
</g>
<g fill="#72603F" fill-opacity="1.00" stroke="None">
<path d="
M 117.00 181.00 
C 117.65 176.97 110.34 177.00 111.00 181.00
C 113.01 179.06 115.02 178.74 117.00 181.00 Z"/>
</g>
<g fill="#796641" fill-opacity="1.00" stroke="None">
<path d="
M 129.00 181.00 
C 129.70 177.18 123.29 177.21 124.00 181.00
C 125.87 179.35 127.17 179.00 129.00 181.00 Z"/>
</g>
<g fill="#E2B25B" fill-opacity="1.00" stroke="None">
<path d="
M 138.00 195.00 
C 139.88 192.71 152.19 177.74 142.00 178.00
C 135.06 178.18 139.15 191.14 138.00 195.00 Z"/>
</g>
<g fill="#DE382C" fill-opacity="1.00" stroke="None">
<path d="
M 364.00 221.00 
C 375.34 222.41 390.89 217.69 401.00 222.00
C 403.71 223.95 406.27 226.01 409.00 228.00
C 408.67 219.65 415.14 214.49 417.00 207.00
C 417.25 204.87 417.25 202.13 417.00 200.00
C 413.42 185.55 399.89 184.86 387.00 186.00 C 374.11 187.14 359.06 182.02 351.31 194.31 C 343.55 206.59 352.59 218.17 364.00 221.00
M 380.00 204.00 
C 377.13 207.64 373.64 211.23 370.00 214.00
C 366.94 209.83 374.43 208.68 374.92 204.92 C 375.40 201.16 366.78 198.99 370.00 195.00
C 373.80 197.38 376.24 201.68 380.00 204.00
M 401.00 212.00 
C 400.81 215.29 382.19 215.36 382.00 212.00
C 384.05 209.87 399.00 209.92 401.00 212.00 Z"/>
</g>
<g fill="#F2B3A7" fill-opacity="1.00" stroke="None">
<path d="
M 116.00 191.00 
C 118.24 190.28 122.64 190.79 125.00 191.00
C 123.71 189.67 117.13 188.98 116.00 191.00 Z"/>
</g>
<g fill="#97703C" fill-opacity="1.00" stroke="None">
<path d="
M 196.00 197.00 
C 195.59 200.98 195.51 206.03 196.00 210.00
C 197.66 216.70 203.17 223.85 208.00 227.00
C 213.31 228.10 217.85 227.85 223.00 226.00
C 223.88 220.55 225.37 214.69 230.92 209.92 C 236.47 205.15 227.45 196.99 224.00 207.00
C 221.13 202.66 222.23 186.87 213.22 191.22 C 204.22 195.58 198.64 185.06 196.00 197.00
M 205.00 200.00 
C 202.58 198.97 200.47 199.10 198.00 200.00
C 197.85 196.28 205.13 196.14 205.00 200.00
M 218.00 199.00 
C 216.47 200.81 213.09 197.54 211.00 200.00
C 210.65 195.92 216.65 196.47 218.00 199.00
M 217.00 205.00 
C 215.02 202.74 213.01 203.06 211.00 205.00
C 210.34 201.00 217.65 200.97 217.00 205.00
M 212.00 214.00 
C 210.67 217.17 202.84 217.25 203.00 213.00
C 205.45 215.79 208.98 215.03 212.00 214.00 Z"/>
</g>
<g fill="#9A9897" fill-opacity="1.00" stroke="None">
<path d="
M 117.00 192.00 
C 119.42 192.35 122.56 192.22 125.00 192.00
C 125.00 192.00 125.25 191.26 125.00 191.00
C 122.64 190.79 118.24 190.28 116.00 191.00
C 115.90 191.19 116.65 191.95 117.00 192.00 Z"/>
</g>
<g fill="#372B2A" fill-opacity="1.00" stroke="None">
<path d="
M 125.00 192.00 
C 122.56 192.22 119.42 192.35 117.00 192.00
C 118.27 195.05 123.77 196.71 125.00 192.00 Z"/>
</g>
<g fill="#46484A" fill-opacity="1.00" stroke="None">
<path d="
M 186.00 204.00 
C 185.74 201.18 185.71 197.81 186.00 195.00
C 185.29 198.22 185.32 200.74 186.00 204.00 Z"/>
</g>
<g fill="#FCEFEE" fill-opacity="1.00" stroke="None">
<path d="
M 380.00 204.00 
C 376.24 201.68 373.80 197.38 370.00 195.00
C 366.78 198.99 375.40 201.16 374.92 204.92 C 374.43 208.68 366.94 209.83 370.00 214.00
C 373.64 211.23 377.13 207.64 380.00 204.00 Z"/>
</g>
<g fill="#583620" fill-opacity="1.00" stroke="None">
<path d="
M 196.00 210.00 
C 195.51 206.03 195.59 200.98 196.00 197.00
C 195.06 201.22 194.94 205.70 196.00 210.00 Z"/>
</g>
<g fill="#262017" fill-opacity="1.00" stroke="None">
<path d="
M 205.00 200.00 
C 205.13 196.14 197.85 196.28 198.00 200.00
C 200.47 199.10 202.58 198.97 205.00 200.00 Z"/>
</g>
<g fill="#241F16" fill-opacity="1.00" stroke="None">
<path d="
M 218.00 199.00 
C 216.65 196.47 210.65 195.92 211.00 200.00
C 213.09 197.54 216.47 200.81 218.00 199.00 Z"/>
</g>
<g fill="#E5B261" fill-opacity="1.00" stroke="None">
<path d="
M 123.00 201.00 
C 123.49 201.58 122.60 203.34 123.00 204.00
C 127.33 204.29 129.61 203.27 133.00 202.00
C 133.17 201.57 132.77 200.35 133.00 200.00
C 130.49 199.40 126.08 201.32 123.00 201.00 Z"/>
</g>
<g fill="#711C15" fill-opacity="1.00" stroke="None">
<path d="
M 417.00 207.00 
C 417.68 204.27 417.69 202.78 417.00 200.00
C 417.25 202.13 417.25 204.87 417.00 207.00 Z"/>
</g>
<g fill="#3E3220" fill-opacity="1.00" stroke="None">
<path d="
M 217.00 205.00 
C 217.65 200.97 210.34 201.00 211.00 205.00
C 213.01 203.06 215.02 202.74 217.00 205.00 Z"/>
</g>
<g fill="#EB8880" fill-opacity="1.00" stroke="None">
<path d="
M 382.00 212.00 
C 382.00 212.03 383.00 212.00 383.00 212.00
C 388.67 212.00 394.33 212.00 400.00 212.00
C 400.50 212.00 401.00 212.00 401.00 212.00
C 399.00 209.92 384.05 209.87 382.00 212.00 Z"/>
</g>
<g fill="#F8D9D6" fill-opacity="1.00" stroke="None">
<path d="
M 401.00 212.00 
C 401.00 212.00 400.50 212.00 400.00 212.00
C 397.24 214.04 385.69 213.99 383.00 212.00
C 383.00 212.00 382.00 212.03 382.00 212.00
C 382.19 215.36 400.81 215.29 401.00 212.00 Z"/>
</g>
<g fill="#FEFBFB" fill-opacity="1.00" stroke="None">
<path d="
M 400.00 212.00 
C 394.33 212.00 388.67 212.00 383.00 212.00
C 385.69 213.99 397.24 214.04 400.00 212.00 Z"/>
</g>
<g fill="#3A2E1E" fill-opacity="1.00" stroke="None">
<path d="
M 212.00 214.00 
C 208.98 215.03 205.45 215.79 203.00 213.00
C 202.84 217.25 210.67 217.17 212.00 214.00 Z"/>
</g>
<g fill="#DB3629" fill-opacity="1.00" stroke="None">
<path d="
M 63.00 215.00 
C 42.24 212.73 38.45 244.22 59.00 247.00 C 79.55 249.78 82.50 217.13 63.00 215.00 Z"/>
</g>
<g fill="#6B1A13" fill-opacity="1.00" stroke="None">
<path d="
M 401.00 222.00 
C 390.89 217.69 375.34 222.41 364.00 221.00
C 375.17 223.77 389.52 218.93 401.00 222.00 Z"/>
</g>
<g fill="#547BBD" fill-opacity="1.00" stroke="None">
<path d="
M 249.00 279.00 
C 249.62 279.00 250.34 278.14 251.00 278.00
C 266.38 274.73 286.94 284.43 292.00 264.00
C 292.29 261.64 292.36 258.35 292.00 256.00
C 288.53 243.75 278.42 242.00 267.00 242.00
C 266.50 242.00 265.50 242.00 265.00 242.00
C 253.39 241.70 240.66 244.43 232.00 236.00
C 232.81 246.97 221.48 253.90 225.01 264.99 C 228.53 276.09 238.53 278.93 249.00 279.00
M 271.00 259.00 
C 271.51 259.45 272.39 260.02 272.00 261.00
C 271.18 263.09 260.32 262.28 258.00 262.00 C 255.68 261.72 245.20 263.97 244.26 260.74 C 243.31 257.51 252.74 257.39 256.00 258.00 C 259.26 258.61 268.26 256.62 271.00 259.00 Z"/>
</g>
<g fill="#A2A6AB" fill-opacity="1.00" stroke="None">
<path d="
M 151.00 252.00 
C 112.31 245.07 99.90 303.04 138.33 311.67 C 176.76 320.30 188.74 258.76 151.00 252.00
M 167.00 298.00 
C 162.01 305.05 157.58 308.10 149.00 310.00
C 145.50 310.78 142.87 310.86 139.00 310.00
C 130.24 308.06 122.66 302.38 119.00 294.00
C 110.35 274.19 125.57 251.43 148.00 254.00 C 170.43 256.57 178.70 281.46 167.00 298.00 Z"/>
</g>
<g fill="#000000" fill-opacity="1.00" stroke="None">
<path d="
M 119.00 294.00 
C 120.06 288.76 124.55 290.78 125.33 283.33 C 126.10 275.88 130.12 265.03 137.25 261.25 C 144.37 257.47 147.27 260.24 152.67 260.33 C 158.07 260.42 159.80 264.07 162.75 267.25 C 165.71 270.42 166.83 276.41 166.00 281.00 C 165.17 285.59 167.59 293.70 167.00 298.00
C 178.70 281.46 170.43 256.57 148.00 254.00 C 125.57 251.43 110.35 274.19 119.00 294.00 Z"/>
</g>
<g fill="#293C5C" fill-opacity="1.00" stroke="None">
<path d="
M 292.00 264.00 
C 292.74 261.03 292.86 259.05 292.00 256.00
C 292.36 258.35 292.29 261.64 292.00 264.00 Z"/>
</g>
<g fill="#A3B8D8" fill-opacity="1.00" stroke="None">
<path d="
M 272.00 261.00 
C 269.76 263.13 261.24 260.07 258.00 261.00 C 254.76 261.93 247.65 261.13 245.00 260.00
C 252.76 257.70 262.49 259.65 271.00 259.00
C 268.26 256.62 259.26 258.61 256.00 258.00 C 252.74 257.39 243.31 257.51 244.26 260.74 C 245.20 263.97 255.68 261.72 258.00 262.00 C 260.32 262.28 271.18 263.09 272.00 261.00 Z"/>
</g>
<g fill="#FCFCFD" fill-opacity="1.00" stroke="None">
<path d="
M 272.00 261.00 
C 272.39 260.02 271.51 259.45 271.00 259.00
C 262.49 259.65 252.76 257.70 245.00 260.00
C 247.65 261.13 254.76 261.93 258.00 261.00 C 261.24 260.07 269.76 263.13 272.00 261.00 Z"/>
</g>
<g fill="#F8DB7F" fill-opacity="1.00" stroke="None">
<path d="
M 119.00 294.00 
C 122.66 302.38 130.24 308.06 139.00 310.00
C 135.65 305.35 142.42 304.10 135.77 300.23 C 129.12 296.36 127.74 286.37 129.93 279.93 C 132.11 273.49 129.14 274.04 133.00 269.00
C 136.60 273.00 140.73 274.89 145.08 278.92 C 149.42 282.96 159.19 281.05 163.67 283.33 C 168.15 285.61 158.80 294.08 157.70 297.70 C 156.59 301.31 142.11 303.17 149.00 310.00
C 157.58 308.10 162.01 305.05 167.00 298.00
C 167.59 293.70 165.17 285.59 166.00 281.00 C 166.83 276.41 165.71 270.42 162.75 267.25 C 159.80 264.07 158.07 260.42 152.67 260.33 C 147.27 260.24 144.37 257.47 137.25 261.25 C 130.12 265.03 126.10 275.88 125.33 283.33 C 124.55 290.78 120.06 288.76 119.00 294.00 Z"/>
</g>
<g fill="#A0A4AA" fill-opacity="1.00" stroke="None">
<path d="
M 410.00 265.00 
C 386.15 261.59 367.48 285.10 376.22 306.78 C 384.97 328.45 412.81 330.49 427.25 314.25 C 441.68 298.01 431.87 268.12 410.00 265.00
M 412.00 322.00 
C 407.24 323.76 403.39 324.50 398.00 323.00
C 380.28 318.06 369.01 296.02 379.92 279.92 C 390.84 263.83 414.25 261.53 426.30 277.70 C 438.36 293.86 430.66 315.11 412.00 322.00 Z"/>
</g>
<g fill="#010000" fill-opacity="1.00" stroke="None">
<path d="
M 398.00 323.00 
C 398.00 321.67 398.00 320.33 398.00 319.00
C 395.89 318.60 393.34 317.62 392.00 316.00
C 382.94 309.20 382.26 299.90 383.00 289.00
C 383.60 280.18 387.99 272.53 397.01 271.01 C 406.02 269.49 413.64 271.11 419.75 278.25 C 425.87 285.38 425.30 295.76 424.07 304.07 C 422.85 312.39 415.75 318.42 412.00 322.00
C 430.66 315.11 438.36 293.86 426.30 277.70 C 414.25 261.53 390.84 263.83 379.92 279.92 C 369.01 296.02 380.28 318.06 398.00 323.00 Z"/>
</g>
<g fill="#E2BEA6" fill-opacity="1.00" stroke="None">
<path d="
M 139.00 310.00 
C 142.87 310.86 145.50 310.78 149.00 310.00
C 142.11 303.17 156.59 301.31 157.70 297.70 C 158.80 294.08 168.15 285.61 163.67 283.33 C 159.19 281.05 149.42 282.96 145.08 278.92 C 140.73 274.89 136.60 273.00 133.00 269.00
C 129.14 274.04 132.11 273.49 129.93 279.93 C 127.74 286.37 129.12 296.36 135.77 300.23 C 142.42 304.10 135.65 305.35 139.00 310.00
M 137.00 283.00 
C 136.09 279.79 132.29 282.15 131.00 281.00
C 132.52 278.04 138.00 279.16 137.00 283.00
M 151.00 284.00 
C 149.74 285.16 147.05 281.36 145.00 284.00
C 144.57 280.90 150.55 281.35 151.00 284.00
M 144.00 292.00 
C 144.01 292.23 143.12 293.80 143.00 294.00
C 140.83 297.48 135.27 296.26 135.00 292.00
C 134.97 291.50 135.00 291.00 135.00 291.00
C 136.01 287.60 143.80 288.76 144.00 292.00 Z"/>
</g>
<g fill="#E15A4E" fill-opacity="1.00" stroke="None">
<path d="
M 383.00 289.00 
C 383.00 288.96 384.00 289.00 384.00 289.00
C 387.20 281.16 407.95 283.55 413.00 288.00
C 417.83 292.25 414.73 303.27 411.23 308.23 C 407.72 313.19 398.36 317.79 392.00 316.00
C 393.34 317.62 395.89 318.60 398.00 319.00
C 398.00 320.33 398.00 321.67 398.00 323.00
C 403.39 324.50 407.24 323.76 412.00 322.00
C 415.75 318.42 422.85 312.39 424.07 304.07 C 425.30 295.76 425.87 285.38 419.75 278.25 C 413.64 271.11 406.02 269.49 397.01 271.01 C 387.99 272.53 383.60 280.18 383.00 289.00 Z"/>
</g>
<g fill="#96A2A8" fill-opacity="1.00" stroke="None">
<path d="
M 249.00 279.00 
C 242.83 286.01 239.95 301.79 236.31 310.31 C 232.66 318.82 223.84 331.87 224.00 341.00
C 224.27 341.17 224.87 341.73 225.00 342.00
C 230.90 336.78 231.12 322.66 235.69 316.69 C 240.27 310.73 238.58 308.65 241.07 304.07 C 243.57 299.49 244.82 294.34 246.08 291.08 C 247.33 287.81 252.56 279.71 251.00 278.00
C 250.34 278.14 249.62 279.00 249.00 279.00 Z"/>
</g>
<g fill="#706156" fill-opacity="1.00" stroke="None">
<path d="
M 137.00 283.00 
C 138.00 279.16 132.52 278.04 131.00 281.00
C 132.29 282.15 136.09 279.79 137.00 283.00 Z"/>
</g>
<g fill="#63584F" fill-opacity="1.00" stroke="None">
<path d="
M 151.00 284.00 
C 150.55 281.35 144.57 280.90 145.00 284.00
C 147.05 281.36 149.74 285.16 151.00 284.00 Z"/>
</g>
<g fill="#F2EBEA" fill-opacity="1.00" stroke="None">
<path d="
M 384.00 289.00 
C 388.25 289.00 395.00 288.10 399.00 289.00 C 403.00 289.90 410.60 287.00 413.00 288.00
C 407.95 283.55 387.20 281.16 384.00 289.00 Z"/>
</g>
<g fill="#FAD6BF" fill-opacity="1.00" stroke="None">
<path d="
M 384.00 289.00 
C 384.00 289.00 383.00 288.96 383.00 289.00
C 382.26 299.90 382.94 309.20 392.00 316.00
C 398.36 317.79 407.72 313.19 411.23 308.23 C 414.73 303.27 417.83 292.25 413.00 288.00
C 410.60 287.00 403.00 289.90 399.00 289.00 C 395.00 288.10 388.25 289.00 384.00 289.00
M 392.00 297.00 
C 389.46 294.01 387.56 294.26 385.00 297.00
C 383.39 291.46 393.31 292.03 392.00 297.00
M 408.00 297.00 
C 405.28 294.79 402.82 294.83 400.00 297.00
C 399.77 291.85 408.22 291.85 408.00 297.00
M 401.00 306.00 
C 399.52 309.23 394.54 308.26 392.00 307.00
C 394.15 305.76 398.15 307.89 401.00 306.00 Z"/>
</g>
<g fill="#D9918B" fill-opacity="1.00" stroke="None">
<path d="
M 135.00 291.00 
C 136.28 290.75 143.31 290.95 144.00 292.00
C 143.80 288.76 136.01 287.60 135.00 291.00 Z"/>
</g>
<g fill="#30211D" fill-opacity="1.00" stroke="None">
<path d="
M 135.00 292.00 
C 136.57 293.39 140.91 294.97 143.00 294.00
C 143.12 293.80 144.01 292.23 144.00 292.00
C 143.31 290.95 136.28 290.75 135.00 291.00
C 135.00 291.00 134.97 291.50 135.00 292.00 Z"/>
</g>
<g fill="#E79B95" fill-opacity="1.00" stroke="None">
<path d="
M 143.00 294.00 
C 140.91 294.97 136.57 293.39 135.00 292.00
C 135.27 296.26 140.83 297.48 143.00 294.00 Z"/>
</g>
<g fill="#83756A" fill-opacity="1.00" stroke="None">
<path d="
M 392.00 297.00 
C 393.31 292.03 383.39 291.46 385.00 297.00
C 387.56 294.26 389.46 294.01 392.00 297.00 Z"/>
</g>
<g fill="#827469" fill-opacity="1.00" stroke="None">
<path d="
M 408.00 297.00 
C 408.22 291.85 399.77 291.85 400.00 297.00
C 402.82 294.83 405.28 294.79 408.00 297.00 Z"/>
</g>
<g fill="#EB5C4D" fill-opacity="1.00" stroke="None">
<path d="
M 401.00 306.00 
C 398.15 307.89 394.15 305.76 392.00 307.00
C 394.54 308.26 399.52 309.23 401.00 306.00 Z"/>
</g>
<g fill="#179C57" fill-opacity="1.00" stroke="None">
<path d="
M 92.00 336.00 
C 92.06 335.51 92.00 334.50 92.00 334.00
C 92.00 328.19 91.43 322.36 88.25 317.75 C 85.07 313.14 80.86 312.73 78.00 309.00
C 78.00 309.00 77.44 309.16 77.00 309.00
C 55.34 301.32 38.65 326.98 49.75 344.25 C 60.86 361.52 89.51 355.63 92.00 336.00 Z"/>
</g>
<g fill="#537ABB" fill-opacity="1.00" stroke="None">
<path d="
M 301.00 308.00 
C 280.38 303.73 273.76 334.33 293.78 339.22 C 313.80 344.11 319.97 311.93 301.00 308.00 Z"/>
</g>
<g fill="#97A2A8" fill-opacity="1.00" stroke="None">
<path d="
M 92.00 336.00 
C 107.96 340.83 127.92 341.23 144.33 343.67 C 160.74 346.12 179.39 352.50 196.00 351.00
C 195.99 350.50 196.00 350.00 196.00 350.00
C 191.35 346.25 181.63 348.04 175.67 346.33 C 169.71 344.62 161.34 344.27 155.00 343.00 C 148.66 341.73 140.32 341.01 134.00 340.00 C 127.68 338.99 119.06 336.88 113.01 336.99 C 106.95 337.11 97.27 331.77 92.00 334.00
C 92.00 334.50 92.06 335.51 92.00 336.00 Z"/>
</g>
<g fill="#F7B912" fill-opacity="1.00" stroke="None">
<path d="
M 196.00 350.00 
C 196.00 350.00 195.99 350.50 196.00 351.00
C 196.26 362.07 206.23 371.43 217.77 367.77 C 229.32 364.11 229.29 350.71 225.00 342.00
C 224.87 341.73 224.27 341.17 224.00 341.00
C 210.94 332.71 202.32 338.44 196.00 350.00 Z"/>
</g>
<g fill="#9EA2A7" fill-opacity="1.00" stroke="None">
<path d="
M 419.00 343.00 
C 380.75 336.15 368.58 395.19 407.00 403.00 C 445.42 410.81 456.77 349.77 419.00 343.00
M 423.00 400.00 
C 422.57 400.17 422.00 400.00 422.00 400.00
C 417.07 401.73 413.05 402.10 408.00 401.00
C 377.46 394.34 377.71 348.80 410.02 345.02 C 442.34 341.25 452.51 388.40 423.00 400.00 Z"/>
</g>
<g fill="#000000" fill-opacity="1.00" stroke="None">
<path d="
M 408.00 401.00 
C 407.76 400.69 408.25 399.21 408.00 399.00
C 402.64 397.28 399.16 393.96 397.00 389.00
C 395.17 384.80 394.65 380.10 395.00 375.00
C 393.64 370.18 389.44 362.00 396.25 358.25 C 403.06 354.49 404.33 349.53 412.01 350.01 C 419.69 350.49 423.06 352.27 428.75 357.25 C 434.45 362.22 429.74 371.26 431.00 377.00
C 431.29 378.31 436.05 381.70 432.69 383.69 C 429.34 385.69 429.20 386.65 428.00 390.00
C 427.79 390.57 427.30 391.50 427.00 392.00
C 425.03 395.23 422.94 395.83 423.00 400.00
C 452.51 388.40 442.34 341.25 410.02 345.02 C 377.71 348.80 377.46 394.34 408.00 401.00 Z"/>
</g>
<g fill="#1A9C58" fill-opacity="1.00" stroke="None">
<path d="
M 316.00 350.00 
C 313.80 351.10 315.95 354.45 314.00 356.00
C 298.19 355.16 286.96 374.92 297.23 387.77 C 307.50 400.62 329.19 397.65 344.93 396.93 C 360.67 396.20 370.28 376.29 359.75 363.25 C 349.22 350.20 326.72 362.19 316.00 350.00
M 317.00 375.00 
C 316.97 379.56 325.91 381.31 323.00 386.00
C 318.86 383.29 316.10 378.65 312.00 376.00
C 315.74 373.95 316.66 367.41 321.25 366.25 C 325.84 365.09 320.49 374.89 317.00 375.00
M 346.00 375.00 
C 343.25 378.34 342.12 383.04 337.25 385.25 C 332.37 387.45 336.79 377.48 341.00 377.00
C 341.63 374.64 331.27 367.76 335.26 366.25 C 339.25 364.75 342.30 374.72 346.00 375.00 Z"/>
</g>
<g fill="#25282A" fill-opacity="1.00" stroke="None">
<path d="
M 395.00 375.00 
C 396.20 357.43 405.42 371.20 415.00 371.00
C 414.67 371.11 417.69 369.99 417.00 370.00
C 413.65 367.49 409.16 365.90 407.00 362.00
C 412.82 359.41 416.51 369.04 423.00 368.00
C 423.45 372.30 421.96 377.12 424.00 381.00
C 424.22 381.38 424.00 382.00 424.00 382.00
C 426.37 383.94 425.78 380.29 427.00 379.00
C 428.28 377.65 428.68 376.57 431.00 377.00
C 429.74 371.26 434.45 362.22 428.75 357.25 C 423.06 352.27 419.69 350.49 412.01 350.01 C 404.33 349.53 403.06 354.49 396.25 358.25 C 389.44 362.00 393.64 370.18 395.00 375.00 Z"/>
</g>
<g fill="#CB9F63" fill-opacity="1.00" stroke="None">
<path d="
M 417.00 370.00 
C 418.01 370.76 419.57 370.68 420.00 372.00
C 415.83 371.74 416.68 372.20 418.00 375.00
C 415.49 374.20 412.81 373.72 410.00 374.00
C 410.43 371.06 414.09 373.08 415.00 371.00
C 405.42 371.20 396.20 357.43 395.00 375.00
C 394.65 380.10 395.17 384.80 397.00 389.00
C 402.36 387.61 407.53 381.14 413.74 386.26 C 419.95 391.37 423.98 389.24 424.00 381.00
C 421.96 377.12 423.45 372.30 423.00 368.00
C 416.51 369.04 412.82 359.41 407.00 362.00
C 409.16 365.90 413.65 367.49 417.00 370.00
M 405.00 374.00 
C 402.25 372.91 398.77 375.78 397.00 374.00
C 398.58 371.76 403.79 370.67 405.00 374.00
M 404.00 378.00 
C 403.15 378.39 399.79 378.74 399.00 378.00
C 400.03 376.08 402.99 375.89 404.00 378.00
M 417.00 379.00 
C 414.96 377.38 412.42 379.70 411.00 378.00
C 412.72 376.56 416.29 376.40 417.00 379.00 Z"/>
</g>
<g fill="#F2F9F4" fill-opacity="1.00" stroke="None">
<path d="
M 317.00 375.00 
C 320.49 374.89 325.84 365.09 321.25 366.25 C 316.66 367.41 315.74 373.95 312.00 376.00
C 316.10 378.65 318.86 383.29 323.00 386.00
C 325.91 381.31 316.97 379.56 317.00 375.00 Z"/>
</g>
<g fill="#E8F4EE" fill-opacity="1.00" stroke="None">
<path d="
M 346.00 375.00 
C 342.30 374.72 339.25 364.75 335.26 366.25 C 331.27 367.76 341.63 374.64 341.00 377.00
C 336.79 377.48 332.37 387.45 337.25 385.25 C 342.12 383.04 343.25 378.34 346.00 375.00 Z"/>
</g>
<g fill="#524739" fill-opacity="1.00" stroke="None">
<path d="
M 415.00 371.00 
C 414.09 373.08 410.43 371.06 410.00 374.00
C 412.81 373.72 415.49 374.20 418.00 375.00
C 416.68 372.20 415.83 371.74 420.00 372.00
C 419.57 370.68 418.01 370.76 417.00 370.00
C 417.69 369.99 414.67 371.11 415.00 371.00 Z"/>
</g>
<g fill="#453E34" fill-opacity="1.00" stroke="None">
<path d="
M 405.00 374.00 
C 403.79 370.67 398.58 371.76 397.00 374.00
C 398.77 375.78 402.25 372.91 405.00 374.00 Z"/>
</g>
<g fill="#63543D" fill-opacity="1.00" stroke="None">
<path d="
M 404.00 378.00 
C 402.99 375.89 400.03 376.08 399.00 378.00
C 399.79 378.74 403.15 378.39 404.00 378.00 Z"/>
</g>
<g fill="#67563F" fill-opacity="1.00" stroke="None">
<path d="
M 417.00 379.00 
C 416.29 376.40 412.72 376.56 411.00 378.00
C 412.42 379.70 414.96 377.38 417.00 379.00 Z"/>
</g>
<g fill="#C69B60" fill-opacity="1.00" stroke="None">
<path d="
M 427.00 379.00 
C 426.55 380.27 426.98 382.64 427.00 384.00
C 427.03 385.72 428.04 389.12 428.00 390.00
C 429.20 386.65 429.34 385.69 432.69 383.69 C 436.05 381.70 431.29 378.31 431.00 377.00
C 428.68 376.57 428.28 377.65 427.00 379.00 Z"/>
</g>
<g fill="#665540" fill-opacity="1.00" stroke="None">
<path d="
M 424.00 382.00 
C 424.27 383.99 426.46 383.17 427.00 384.00
C 426.98 382.64 426.55 380.27 427.00 379.00
C 425.78 380.29 426.37 383.94 424.00 382.00 Z"/>
</g>
<g fill="#B68A67" fill-opacity="1.00" stroke="None">
<path d="
M 397.00 389.00 
C 399.16 393.96 402.64 397.28 408.00 399.00
C 412.38 400.40 418.05 399.71 422.00 397.00
C 422.57 394.74 425.64 393.46 427.00 392.00
C 427.30 391.50 427.79 390.57 428.00 390.00
C 428.04 389.12 427.03 385.72 427.00 384.00
C 426.46 383.17 424.27 383.99 424.00 382.00
C 424.00 382.00 424.22 381.38 424.00 381.00
C 423.98 389.24 419.95 391.37 413.74 386.26 C 407.53 381.14 402.36 387.61 397.00 389.00
M 412.00 390.00 
C 411.95 389.98 411.35 390.95 411.00 391.00
C 409.95 394.89 403.18 395.54 402.00 391.00
C 401.88 390.53 402.00 390.00 402.00 390.00
C 403.38 388.58 410.86 387.97 412.00 390.00 Z"/>
</g>
<g fill="#DAC5B6" fill-opacity="1.00" stroke="None">
<path d="
M 402.00 390.00 
C 404.62 389.76 409.52 389.20 412.00 390.00
C 410.86 387.97 403.38 388.58 402.00 390.00 Z"/>
</g>
<g fill="#9A9B9D" fill-opacity="1.00" stroke="None">
<path d="
M 402.00 391.00 
C 404.74 391.25 408.27 391.39 411.00 391.00
C 411.35 390.95 411.95 389.98 412.00 390.00
C 409.52 389.20 404.62 389.76 402.00 390.00
C 402.00 390.00 401.88 390.53 402.00 391.00 Z"/>
</g>
<g fill="#2C2D2D" fill-opacity="1.00" stroke="None">
<path d="
M 411.00 391.00 
C 408.27 391.39 404.74 391.25 402.00 391.00
C 403.18 395.54 409.95 394.89 411.00 391.00 Z"/>
</g>
<g fill="#4D3F30" fill-opacity="1.00" stroke="None">
<path d="
M 422.00 397.00 
C 421.93 397.28 421.82 399.83 422.00 400.00
C 422.00 400.00 422.57 400.17 423.00 400.00
C 422.94 395.83 425.03 395.23 427.00 392.00
C 425.64 393.46 422.57 394.74 422.00 397.00 Z"/>
</g>
<g fill="#CDA570" fill-opacity="1.00" stroke="None">
<path d="
M 408.00 399.00 
C 408.25 399.21 407.76 400.69 408.00 401.00
C 413.05 402.10 417.07 401.73 422.00 400.00
C 421.82 399.83 421.93 397.28 422.00 397.00
C 418.05 399.71 412.38 400.40 408.00 399.00 Z"/>
</g>
</svg>